<svg version="1.1" id="Layer_1" xmlns="http://www.w3.org/2000/svg" xmlns:xlink="http://www.w3.org/1999/xlink" x="0px" y="0px" viewBox="0 0 500 500" style="width: 166px;" xml:space="preserve" data-imageid="artificial-intelligence-1-95" imageName="Artificial Intelligence 1" class="illustrations_image">
<style type="text/css">
	.st0_artificial-intelligence-1-95{fill:#231F20;}
	.st1_artificial-intelligence-1-95{fill:#68E1FD;}
	.st2_artificial-intelligence-1-95{fill:#FFFFFF;}
	.st3_artificial-intelligence-1-95{fill:none;}
	.st4_artificial-intelligence-1-95{fill:#D1D3D4;}
</style>
<g id="AI_Bot_artificial-intelligence-1-95">
	<path class="st0_artificial-intelligence-1-95" d="M261.6,414h-90.9c0,0-8.3-64.8,14.7-75.9s67.3-5.5,76.2,13.3S261.6,414,261.6,414z"/>
	<path class="st0_artificial-intelligence-1-95" d="M261.6,414.7h-90.9c-0.4,0-0.6-0.3-0.7-0.6c-1.3-11.3-1.7-22.6-1.3-33.9c1.1-23.6,6.6-38,16.4-42.7&#10;&#9;&#9;c14.8-7.1,39.6-7.6,57.6-1.2c9.9,3.5,16.6,8.6,19.5,14.8c8.9,18.8,0.4,61.2,0,63C262.2,414.5,261.9,414.7,261.6,414.7z&#10;&#9;&#9; M171.3,413.3H261c1-5.1,8.1-44.2-0.1-61.5c-2.8-5.9-9.2-10.7-18.7-14.1c-17.7-6.3-42.1-5.8-56.5,1.1&#10;&#9;&#9;C164.6,348.9,170.6,406.7,171.3,413.3L171.3,413.3z"/>
	<path class="st1_artificial-intelligence-1-95 targetColor" d="M274.4,319.8H294c0,0,20.2,3.6,40.9,26.2s24.8,68,24.8,68h-98c0,0-18.7-66.2-43.3-73.5s-31.3,4.2-35.1,26.5&#10;&#9;&#9;s0,47.1,0,47.1h-42.9c0,0,4-45.5,21.8-70.8s46.1-23.4,46.1-23.4H274.4z" style="fill: rgb(255, 255, 255);"/>
	<path class="st0_artificial-intelligence-1-95" d="M359.6,414.7h-98c-0.3,0-0.6-0.2-0.7-0.5c-0.2-0.7-18.8-65.9-42.8-73.1c-10-3-17.4-2.9-22.5,0.3&#10;&#9;&#9;c-5.8,3.6-9.2,11-11.7,25.6c-3.8,21.9,0,46.6,0,46.9c0,0.2,0,0.4-0.2,0.6c-0.1,0.1-0.3,0.2-0.5,0.2h-42.9c-0.2,0-0.4-0.1-0.5-0.2&#10;&#9;&#9;c-0.1-0.1-0.2-0.3-0.2-0.5c0-0.5,4.2-46,21.9-71.1c17.8-25.3,46.4-23.7,46.7-23.7H294c0.3,0,20.8,4,41.4,26.4s25,68,25,68.5&#10;&#9;&#9;c0,0.2-0.1,0.4-0.2,0.5C360,414.6,359.9,414.7,359.6,414.7z M262.1,413.3h96.7c-0.7-6-5.7-46.4-24.6-66.9&#10;&#9;&#9;c-20.3-22.1-40.3-25.9-40.5-26h-85.6c-0.3,0-28.2-1.5-45.5,23.1c-16.2,23.1-20.9,63.6-21.6,69.7h41.3c-0.6-4.5-3.3-26.6,0.1-46.5&#10;&#9;&#9;c1.9-11,4.7-21.8,12.4-26.6c5.5-3.4,13.2-3.5,23.6-0.4s21,16.5,31.3,39.9C254.6,390.6,258.7,401.8,262.1,413.3L262.1,413.3z"/>
	<rect x="225.1" y="237.9" class="st0_artificial-intelligence-1-95" width="33.8" height="75.9"/>
	<path class="st0_artificial-intelligence-1-95" d="M258.9,314.5h-33.8c-0.4,0-0.7-0.3-0.7-0.7l0,0v-75.9c0-0.4,0.3-0.7,0.7-0.7h33.8c0.4,0,0.7,0.3,0.7,0.7&#10;&#9;&#9;c0,0,0,0,0,0v75.9C259.6,314.2,259.2,314.5,258.9,314.5C258.9,314.5,258.9,314.5,258.9,314.5z M225.8,313.1h32.4v-74.5h-32.4&#10;&#9;&#9;L225.8,313.1z"/>
	<path class="st0_artificial-intelligence-1-95" d="M274.3,89.7h-56c-21.1,0-41.4,11-49.1,29.7s-5.6,50.5-3.9,71c3.9,46.6,49.7,71.9,58.9,69.3s55-33.6,55-33.6&#10;&#9;&#9;L274.3,89.7z"/>
	<path class="st0_artificial-intelligence-1-95" d="M222.7,260.6c-4.7,0-13.1-3.6-21.4-9.4c-10.1-7-33.9-27-36.6-60.7c-2.1-25.4-3.3-53.8,3.9-71.3&#10;&#9;&#9;C176,101.1,196,89,218.3,89h56c0.4,0,0.7,0.3,0.7,0.7l5,136.4c0,0.2-0.1,0.5-0.3,0.6c-1.9,1.3-46,31.1-55.2,33.7&#10;&#9;&#9;C223.9,260.5,223.3,260.6,222.7,260.6z M218.3,90.4c-21.8,0-41.3,11.8-48.5,29.3c-8.1,19.6-5.2,54.1-3.8,70.7&#10;&#9;&#9;c2.8,33.1,26.1,52.8,36.1,59.7c9.9,6.9,18.8,9.9,21.9,9c8.6-2.4,50.4-30.5,54.5-33.3l-4.9-135.4L218.3,90.4z"/>
	<path class="st2_artificial-intelligence-1-95" d="M246.6,162.9c-14.4-11.3-38.6-0.4-45.5-16.9s0.7-35.5,21.7-40s64.2-3.1,81.4,12.8s7.7,39.7-6.1,50.7&#10;&#9;&#9;S268,179.6,246.6,162.9z"/>
	<path class="st0_artificial-intelligence-1-95" d="M278.5,177.5c-9.7,0-20.3-4.7-32.3-14.1c-6.2-4.9-14.3-5.4-22.2-6.1c-10.1-0.8-19.5-1.5-23.5-11.1&#10;&#9;&#9;c-3.6-8.2-3.4-17.6,0.7-25.6c4.1-7.8,11.7-13.2,21.5-15.3c19.8-4.2,64.2-3.5,82,12.9c6.3,5.6,9.8,13.8,9.5,22.2&#10;&#9;&#9;c-0.4,10.7-6.5,22.2-15.6,29.5C292.2,175,285.6,177.5,278.5,177.5z M247.5,104.5c-8.2-0.1-16.4,0.6-24.5,2.2&#10;&#9;&#9;c-9.4,2-16.7,7.2-20.6,14.6c-3.8,7.6-4.1,16.6-0.6,24.4c3.7,8.8,12.3,9.5,22.4,10.2c8.1,0.6,16.4,1.2,22.9,6.4l0,0&#10;&#9;&#9;c20.2,15.8,36.3,17.9,50.6,6.6c8.8-7,14.8-18.2,15.1-28.5c0.3-8-3-15.8-9-21.2C291.9,108.3,267.8,104.5,247.5,104.5L247.5,104.5z"/>
	<circle class="st1_artificial-intelligence-1-95 targetColor" cx="244.8" cy="233.3" r="26.4" style="fill: rgb(255, 255, 255);"/>
	<path class="st0_artificial-intelligence-1-95" d="M244.8,260.4c-15,0-27.1-12.1-27.1-27.1s12.1-27.1,27.1-27.1s27.1,12.1,27.1,27.1v0&#10;&#9;&#9;C271.8,248.2,259.7,260.4,244.8,260.4z M244.8,207.6c-14.2,0-25.7,11.5-25.7,25.7s11.5,25.7,25.7,25.7c14.2,0,25.7-11.5,25.7-25.7&#10;&#9;&#9;v0C270.4,219.1,258.9,207.6,244.8,207.6z"/>
	
		<ellipse transform="matrix(0.1602 -0.9871 0.9871 0.1602 -24.7224 437.5023)" class="st2_artificial-intelligence-1-95" cx="244.8" cy="233.3" rx="16.9" ry="16.9"/>
	<path class="st0_artificial-intelligence-1-95" d="M244.8,250.8c-9.7,0-17.6-7.9-17.6-17.5s7.9-17.6,17.5-17.6s17.6,7.9,17.6,17.5c0,0,0,0,0,0&#10;&#9;&#9;C262.3,243,254.4,250.8,244.8,250.8z M244.8,217.1c-8.9,0-16.2,7.2-16.2,16.1c0,8.9,7.2,16.2,16.1,16.2c8.9,0,16.2-7.2,16.2-16.1&#10;&#9;&#9;c0,0,0,0,0,0C260.9,224.4,253.7,217.1,244.8,217.1z"/>
	<line class="st3_artificial-intelligence-1-95" x1="261.6" y1="233.3" x2="227.9" y2="233.3"/>
	<path class="st0_artificial-intelligence-1-95" d="M261.6,234h-33.7c-0.4,0-0.7-0.3-0.7-0.7c0-0.4,0.3-0.7,0.7-0.7h33.7c0.4,0,0.7,0.3,0.7,0.7&#10;&#9;&#9;C262.3,233.7,262,234,261.6,234z"/>
	<path class="st1_artificial-intelligence-1-95 targetColor" d="M326.3,189.1c0,0,9.4-39,0.7-61.4C312.8,91.5,274.2,86,274.2,86v13.4l-12.6,1l1.6,73.8&#10;&#9;&#9;c-3.5,2.1-13.1,2.8-13.8,8.6s2.3,47.2,3.7,59.6s26.7,33.8,65.3,30.3c0,0,0.7-16.7,0.7-20s6.9-4.4,7.4-6.3s0-5.9,0-5.9&#10;&#9;&#9;s6.9-2.4,6.5-4.5s-2.6-4.5-2.6-4.5s15-0.2,16.4-5.7S326.3,189.1,326.3,189.1z" style="fill: rgb(255, 255, 255);"/>
	<path class="st0_artificial-intelligence-1-95" d="M310.2,273.9c-14.2,0-27.8-3.3-38.9-9.7c-10.8-6.2-18.2-14.7-19-21.6c-1.3-11.4-4.4-53.7-3.7-59.8&#10;&#9;&#9;c0.5-4.6,5.8-6.2,10-7.6c1.3-0.4,2.5-0.8,3.8-1.4l-1.6-73.4c0-0.4,0.3-0.7,0.6-0.7l12-1V86c0-0.2,0.1-0.4,0.2-0.5&#10;&#9;&#9;c0.2-0.1,0.4-0.2,0.5-0.2c0.4,0.1,39.2,6,53.3,42.2c8.3,21.3,0.3,57.8-0.6,61.5c3,4.2,21.8,31.7,20.4,37.2c-1.2,5-11.6,6-15.6,6.2&#10;&#9;&#9;c0.9,1.1,1.5,2.4,1.8,3.7c0.4,2.2-4.3,4.3-6.5,5.1c0.2,1.9,0.2,3.8-0.1,5.6c-0.3,1.1-1.7,1.8-3.4,2.7c-1.9,1-4,2-4,3.5&#10;&#9;&#9;c0,3.3-0.7,19.4-0.7,20c0,0.4-0.3,0.6-0.6,0.7C315.7,273.8,312.9,273.9,310.2,273.9z M318.3,272.9L318.3,272.9z M262.3,101.1&#10;&#9;&#9;l1.5,73.1c0,0.3-0.1,0.5-0.3,0.6c-1.4,0.7-2.9,1.3-4.4,1.7c-4,1.3-8.6,2.7-9,6.4c-0.7,5.7,2.2,46.7,3.7,59.5&#10;&#9;&#9;c1.4,12.3,26.6,32.9,63.9,29.8c0.1-3,0.7-16.5,0.7-19.4c0-2.3,2.5-3.6,4.8-4.8c1.1-0.6,2.5-1.3,2.6-1.8c0.3-1.9,0.3-3.8,0-5.6&#10;&#9;&#9;c0-0.3,0.1-0.6,0.5-0.8c3.3-1.2,6.2-2.9,6.1-3.7c-0.3-1.8-2.4-4.1-2.4-4.1c-0.2-0.2-0.2-0.5-0.1-0.8c0.1-0.3,0.4-0.4,0.6-0.4&#10;&#9;&#9;c4,0,14.7-1.1,15.7-5.2c1-3.8-11.7-23.8-20.4-36.3c-0.1-0.2-0.1-0.4-0.1-0.6c0.1-0.4,9.3-39.1,0.7-61c-12.8-32.5-45.9-40-51.5-41.1&#10;&#9;&#9;v12.6c0,0.4-0.3,0.7-0.6,0.7L262.3,101.1z"/>
	<path class="st0_artificial-intelligence-1-95" d="M316.9,241.6c-2.8,0-5.9-0.1-9.2-0.3c-9.8-0.7-12.9-2.7-13-2.8c-0.3-0.2-0.4-0.7-0.1-1&#10;&#9;&#9;c0.2-0.3,0.6-0.4,0.9-0.2c0,0,3,1.9,12.3,2.5c6.2,0.4,12.4,0.4,18.5,0c0.4,0,0.7,0.3,0.8,0.6c0,0.4-0.3,0.7-0.6,0.7c0,0,0,0,0,0&#10;&#9;&#9;C326.4,241.4,322.4,241.6,316.9,241.6z"/>
	<path class="st1_artificial-intelligence-1-95 targetColor" d="M263.3,275.9H224c-1.8,0-3.3-1.5-3.3-3.3V270c0-1.8,1.5-3.3,3.3-3.3h39.4c1.8,0,3.3,1.5,3.3,3.3v2.6&#10;&#9;&#9;C266.6,274.4,265.2,275.9,263.3,275.9z" style="fill: rgb(255, 255, 255);"/>
	<path class="st0_artificial-intelligence-1-95" d="M262,276.6h-36.7c-2.9,0.1-5.4-2.1-5.5-5.1s2.1-5.4,5.1-5.5c0.2,0,0.3,0,0.5,0H262c2.9-0.1,5.4,2.1,5.5,5.1&#10;&#9;&#9;s-2.1,5.4-5.1,5.5C262.3,276.6,262.2,276.6,262,276.6z M225.3,267.4c-2.2-0.1-4,1.5-4.1,3.7c-0.1,2.2,1.5,4,3.7,4.1&#10;&#9;&#9;c0.1,0,0.3,0,0.4,0H262c2.2,0.1,4-1.5,4.1-3.7s-1.5-4-3.7-4.1c-0.1,0-0.3,0-0.4,0H225.3z"/>
	<path class="st1_artificial-intelligence-1-95 targetColor" d="M263.3,289.7H224c-1.8,0-3.3-1.5-3.3-3.3v-2.6c0-1.8,1.5-3.3,3.3-3.3h39.4c1.8,0,3.3,1.5,3.3,3.3v2.6&#10;&#9;&#9;C266.6,288.2,265.2,289.7,263.3,289.7z" style="fill: rgb(255, 255, 255);"/>
	<path class="st0_artificial-intelligence-1-95" d="M262,290.4h-36.7c-2.9,0.1-5.4-2.1-5.5-5.1s2.1-5.4,5.1-5.5c0.2,0,0.3,0,0.5,0H262c2.9-0.1,5.4,2.1,5.5,5.1&#10;&#9;&#9;s-2.1,5.4-5.1,5.5C262.3,290.4,262.2,290.4,262,290.4z M225.3,281.2c-2.2-0.1-4,1.5-4.1,3.7c-0.1,2.2,1.5,4,3.7,4.1&#10;&#9;&#9;c0.1,0,0.3,0,0.4,0H262c2.2,0.1,4-1.5,4.1-3.7s-1.5-4-3.7-4.1c-0.1,0-0.3,0-0.4,0H225.3z"/>
	<path class="st1_artificial-intelligence-1-95 targetColor" d="M263.3,303.5H224c-1.8,0-3.3-1.5-3.3-3.3v-2.6c0-1.8,1.5-3.3,3.3-3.3h39.4c1.8,0,3.3,1.5,3.3,3.3v2.6&#10;&#9;&#9;C266.6,302,265.2,303.5,263.3,303.5z" style="fill: rgb(255, 255, 255);"/>
	<path class="st0_artificial-intelligence-1-95" d="M262,304.2h-36.7c-2.9,0-5.3-2.4-5.3-5.3c0-2.9,2.4-5.3,5.3-5.3H262c2.9,0,5.3,2.4,5.3,5.3&#10;&#9;&#9;C267.3,301.8,264.9,304.2,262,304.2z M225.3,295c-2.2,0-3.9,1.8-3.9,3.9c0,2.1,1.7,3.9,3.9,3.9H262c2.2,0,3.9-1.7,3.9-3.9&#10;&#9;&#9;c0-2.2-1.7-3.9-3.9-3.9c0,0,0,0,0,0H225.3z"/>
	<rect x="226.7" y="120.6" class="st1_artificial-intelligence-1-95 targetColor" width="21.3" height="21.3" style="fill: rgb(255, 255, 255);"/>
	<path class="st4_artificial-intelligence-1-95" d="M250.8,148H224c-1.9,0-3.4-1.5-3.4-3.4l0,0v-26.8c0-1.9,1.5-3.4,3.4-3.4l0,0h26.7c1.9,0,3.4,1.5,3.4,3.4l0,0&#10;&#9;&#9;v26.7C254.1,146.4,252.6,148,250.8,148C250.8,148,250.8,148,250.8,148z M224,115.9c-1.1,0-2,0.9-2,2v26.7c0,1.1,0.9,2,2,2h26.7&#10;&#9;&#9;c1.1,0,2-0.9,2-2v-26.8c0-1.1-0.9-2-2-2L224,115.9z"/>
	<path class="st0_artificial-intelligence-1-95" d="M244.5,124.7H239c-0.4,0-0.7-0.3-0.7-0.7c0-0.4,0.3-0.7,0.7-0.7h5.4c0.4,0,0.7,0.3,0.7,0.7&#10;&#9;&#9;C245.1,124.4,244.8,124.7,244.5,124.7L244.5,124.7z"/>
	<path class="st4_artificial-intelligence-1-95" d="M260.1,154.4h-15.3c-0.4,0-0.7-0.3-0.7-0.7v-6.5c0-0.4,0.3-0.7,0.7-0.7c0.4,0,0.7,0.3,0.7,0.7v5.8h14.6&#10;&#9;&#9;c0.4,0,0.7,0.3,0.7,0.7C260.8,154.1,260.5,154.4,260.1,154.4z"/>
	<path class="st4_artificial-intelligence-1-95" d="M212.7,149.8c-0.4,0-0.7-0.3-0.7-0.7v-8.8c0-0.4,0.3-0.7,0.7-0.7h8.7c0.4,0,0.7,0.3,0.7,0.7&#10;&#9;&#9;c0,0.4-0.3,0.7-0.7,0.7h-8v8.1C213.3,149.5,213,149.8,212.7,149.8z"/>
	<path class="st4_artificial-intelligence-1-95" d="M221.4,128.5h-12.2c-0.2,0-0.4-0.1-0.6-0.3l-5.8-7.3c-0.2-0.3-0.2-0.7,0.1-1c0.3-0.2,0.7-0.2,1,0.1l5.5,7h11.9&#10;&#9;&#9;c0.4,0,0.7,0.3,0.7,0.7C222.1,128.2,221.7,128.5,221.4,128.5z"/>
	<path class="st4_artificial-intelligence-1-95" d="M232.4,115.9c-0.4,0-0.7-0.3-0.7-0.7v-6.4c0-0.4,0.3-0.7,0.7-0.7c0.4,0,0.7,0.3,0.7,0.7c0,0,0,0,0,0v6.4&#10;&#9;&#9;C233.1,115.6,232.8,115.9,232.4,115.9z"/>
	<path class="st4_artificial-intelligence-1-95" d="M241.8,115c-0.4,0-0.7-0.3-0.7-0.7v-5.5c0-0.3,0.2-0.5,0.4-0.6l7.5-3.2c0.4-0.1,0.8,0,0.9,0.4&#10;&#9;&#9;c0.2,0.4,0,0.8-0.4,0.9c0,0,0,0,0,0l-7.1,3v5C242.5,114.6,242.2,114.9,241.8,115C241.8,115,241.8,115,241.8,115z"/>
	<path class="st4_artificial-intelligence-1-95" d="M260.1,131.1h-6.7c-0.4,0-0.7-0.3-0.7-0.7c0-0.4,0.3-0.7,0.7-0.7h6.7c0.4,0,0.7,0.3,0.7,0.7&#10;&#9;&#9;S260.5,131.1,260.1,131.1C260.1,131.1,260.1,131.1,260.1,131.1z"/>
	<circle class="st1_artificial-intelligence-1-95 targetColor" cx="203.4" cy="193.6" r="30.3" style="fill: rgb(255, 255, 255);"/>
	<path class="st0_artificial-intelligence-1-95" d="M203.4,224.6c-17.1,0-31-13.9-31-31s13.9-31,31-31s31,13.9,31,31S220.5,224.6,203.4,224.6z M203.4,164&#10;&#9;&#9;c-16.3,0-29.6,13.3-29.5,29.6s13.3,29.6,29.6,29.5c16.3,0,29.5-13.3,29.5-29.6C233,177.3,219.7,164,203.4,164L203.4,164z"/>
	<circle class="st1_artificial-intelligence-1-95 targetColor" cx="203.4" cy="193.6" r="20.2" style="fill: rgb(255, 255, 255);"/>
	<path class="st0_artificial-intelligence-1-95" d="M203.4,214.5c-11.5,0-20.9-9.3-20.9-20.9s9.3-20.9,20.9-20.9s20.9,9.3,20.9,20.9&#10;&#9;&#9;C224.2,205.1,214.9,214.5,203.4,214.5z M203.4,174.2c-10.7,0-19.5,8.7-19.5,19.5s8.7,19.5,19.5,19.5s19.5-8.7,19.5-19.5v0&#10;&#9;&#9;C222.9,182.9,214.1,174.2,203.4,174.2z"/>
	<circle class="st2_artificial-intelligence-1-95" cx="203.4" cy="193.6" r="10.4"/>
	<path class="st0_artificial-intelligence-1-95" d="M203.4,204.7c-6.1,0-11-4.9-11-11s4.9-11,11-11s11,4.9,11,11l0,0C214.4,199.7,209.5,204.6,203.4,204.7z&#10;&#9;&#9; M203.4,184c-5.3,0-9.7,4.3-9.7,9.6s4.3,9.7,9.6,9.7c5.3,0,9.7-4.3,9.7-9.6c0,0,0,0,0,0C213,188.3,208.7,184,203.4,184L203.4,184z"/>
	<path class="st0_artificial-intelligence-1-95" d="M212.4,199.5c-0.1,0-0.3,0-0.4-0.1l-17-11.6c-0.3-0.2-0.4-0.6-0.2-1c0,0,0,0,0,0c0.2-0.3,0.7-0.4,1-0.2&#10;&#9;&#9;c0,0,0,0,0,0l17.1,11.6c0.3,0.2,0.4,0.6,0.2,1c0,0,0,0,0,0C212.9,199.4,212.6,199.5,212.4,199.5z"/>
	<path class="st0_artificial-intelligence-1-95" d="M210.1,202.2c-0.1,0-0.3,0-0.4-0.1l-16.5-11c-0.3-0.2-0.4-0.6-0.2-1c0.2-0.3,0.6-0.4,1-0.2c0,0,0,0,0.1,0&#10;&#9;&#9;l16.5,11c0.3,0.2,0.4,0.6,0.2,0.9c0,0,0,0,0,0.1C210.5,202.1,210.3,202.2,210.1,202.2z"/>
	<path class="st1_artificial-intelligence-1-95 targetColor" d="M284.4,319.8h-77.5c-1.9,0-3.5-1.5-3.5-3.5v-2.7c0-1.9,1.5-3.5,3.5-3.5h77.5c1.9,0,3.4,1.5,3.4,3.5v2.7&#10;&#9;&#9;C287.9,318.2,286.3,319.8,284.4,319.8z" style="fill: rgb(255, 255, 255);"/>
	<path class="st0_artificial-intelligence-1-95" d="M283,320.5h-74.8c-3.1,0-5.5-2.5-5.5-5.5c0-3.1,2.5-5.5,5.5-5.5c0,0,0,0,0,0H283c3.1,0,5.5,2.5,5.5,5.5&#10;&#9;&#9;C288.5,318,286.1,320.5,283,320.5C283,320.5,283,320.5,283,320.5z M208.2,310.8c-2.3,0-4.1,1.8-4.1,4.1s1.8,4.1,4.1,4.1H283&#10;&#9;&#9;c2.3,0,4.1-1.8,4.1-4.1s-1.8-4.1-4.1-4.1H208.2z"/>
	<circle class="st2_artificial-intelligence-1-95" cx="210.1" cy="370.2" r="35.3"/>
	<path class="st0_artificial-intelligence-1-95" d="M210.1,406.1c-19.9,0-36-16.1-36-36s16.1-36,36-36s36,16.1,36,36l0,0C246.1,390,230,406.1,210.1,406.1z&#10;&#9;&#9; M210.1,335.6c-19.1,0-34.6,15.5-34.6,34.6c0,19.1,15.5,34.6,34.6,34.6s34.6-15.5,34.6-34.6l0,0&#10;&#9;&#9;C244.6,351.1,229.2,335.6,210.1,335.6z"/>
	<path class="st4_artificial-intelligence-1-95" d="M210.1,395.8c-14.2,0-25.6-11.5-25.6-25.6s11.5-25.6,25.6-25.6c14.2,0,25.6,11.5,25.6,25.6&#10;&#9;&#9;C235.7,384.3,224.2,395.8,210.1,395.8z M210.1,346c-13.4,0-24.2,10.8-24.2,24.2c0,13.4,10.8,24.2,24.2,24.2&#10;&#9;&#9;c13.4,0,24.2-10.8,24.2-24.2C234.3,356.8,223.4,346,210.1,346L210.1,346z"/>
	<path class="st4_artificial-intelligence-1-95" d="M233.4,379.7c-0.1,0-0.2,0-0.3-0.1l-43.5-23.4c-0.3-0.2-0.5-0.6-0.3-1c0.2-0.3,0.6-0.5,0.9-0.3c0,0,0,0,0,0&#10;&#9;&#9;l43.5,23.4c0.3,0.2,0.5,0.6,0.3,0.9C233.9,379.6,233.7,379.7,233.4,379.7z"/>
	<path class="st4_artificial-intelligence-1-95" d="M230,385.8c-0.1,0-0.2,0-0.3-0.1l-43.5-23.2c-0.3-0.2-0.4-0.6-0.2-1c0.2-0.3,0.6-0.4,0.9-0.3l43.5,23.2&#10;&#9;&#9;c0.3,0.2,0.5,0.6,0.3,1C230.5,385.7,230.3,385.8,230,385.8z"/>
	<path class="st0_artificial-intelligence-1-95" d="M325.8,359.8h-37.9c-0.4,0-0.7-0.3-0.7-0.7s0.3-0.7,0.7-0.7c0,0,0,0,0,0h37.9c0.4,0,0.7,0.3,0.7,0.7&#10;&#9;&#9;S326.2,359.8,325.8,359.8C325.8,359.8,325.8,359.8,325.8,359.8z"/>
	<ellipse class="st0_artificial-intelligence-1-95" cx="306.8" cy="189" rx="4.6" ry="7.5"/>
</g>
</svg>