<svg version="1.1" id="Layer_1" xmlns="http://www.w3.org/2000/svg" xmlns:xlink="http://www.w3.org/1999/xlink" x="0px" y="0px" viewBox="0 0 500 500" style="width: 166px;" xml:space="preserve" data-imageid="artificial-intelligence-92" imageName="Artificial Intelligence" class="illustrations_image">
<style type="text/css">
	.st0_artificial-intelligence-92{fill:#D1D3D4;}
	.st1_artificial-intelligence-92{fill:#231F20;}
	.st2_artificial-intelligence-92{fill:#FFFFFF;}
	.st3_artificial-intelligence-92{fill:#68E1FD;}
	.st4_artificial-intelligence-92{fill:none;}
</style>
<path id="Floor_artificial-intelligence-92" class="st0_artificial-intelligence-92" d="M449.3,398.6H50.7c-0.4,0-0.7-0.3-0.7-0.7c0-0.4,0.3-0.7,0.7-0.7h398.7c0.4,0,0.7,0.3,0.7,0.7&#10;&#9;C450,398.3,449.7,398.6,449.3,398.6z"/>
<g id="AI_artificial-intelligence-92">
	<path class="st1_artificial-intelligence-92" d="M265.7,109.7c0,0-27.3-16.3-68.5-1.7s-65,63.3-58.1,98.2s41.8,70.8,41.8,70.8v97.6h111.5V146.9L265.7,109.7z"/>
	<path class="st1_artificial-intelligence-92" d="M292.4,375.3H180.9c-0.4,0-0.7-0.3-0.7-0.7l0,0v-97.3c-2.8-3-35.1-37.7-41.8-71c-6.9-34.6,16.7-84.2,58.5-99&#10;&#9;&#9;c21.4-7.6,39.1-6.7,50.1-4.6c12,2.2,18.8,6.2,19,6.4c0.1,0,0.2,0.1,0.2,0.2l26.8,37.2c0.1,0.1,0.1,0.3,0.1,0.4v227.7&#10;&#9;&#9;C293.1,374.9,292.8,375.3,292.4,375.3C292.4,375.3,292.4,375.3,292.4,375.3z M181.6,373.9h110.1V147.1l-26.5-36.9&#10;&#9;&#9;c-1-0.6-7.6-4.1-18.5-6.2s-28.2-2.9-49.3,4.6C156.2,123.2,133,172,139.8,206c6.9,34.2,41.3,70.1,41.6,70.5c0.1,0.1,0.2,0.3,0.2,0.5&#10;&#9;&#9;L181.6,373.9z"/>
	<path class="st2_artificial-intelligence-92" d="M328.2,171c0.1,25.3-3.3,34.5-0.4,42.6s22.6,44.8,20.9,52.4s-20,9.9-20,9.9v41.8c0,14.5-15.4,14.5-25.9,13.9&#10;&#9;&#9;s-69.1-10.5-76.7-22.1s-18-49.4-18-49.4s-38.9-1-38.3-22.6s19.8-30.3,41.8-15.8c0,0,45.9-1.7,53.4-14.5s-4.1-85.4,0.6-97.6&#10;&#9;&#9;S328,133.1,328.2,171z"/>
	<path class="st1_artificial-intelligence-92" d="M308.3,332.5c-1.8,0-3.7-0.1-5.5-0.2c-10.2-0.6-69.4-10.4-77.2-22.4c-7.1-11-16.6-44.4-18-49.1&#10;&#9;&#9;c-3.6-0.2-24.4-1.5-33.9-11.4c-3.1-3.2-4.8-7.4-4.6-11.9c0.3-9.8,4.4-17.6,11.5-21.2c8.4-4.4,19.8-2.7,31.2,4.8&#10;&#9;&#9;c3.5-0.1,45.6-2.3,52.6-14.2c4.1-6.9,2.4-32.7,0.8-55.4c-1.3-19.6-2.4-36.4-0.3-42c0.7-1.7,2.6-3.6,7.9-2.6c16.6,3,55.8,33,56,64.2&#10;&#9;&#9;l0,0c0.1,11-0.5,18.9-1,25.1c-0.6,8-1,12.8,0.6,17.3c0.9,2.4,3.3,7.5,6.1,13.4c8.8,18.5,16,34.2,14.9,39.3&#10;&#9;&#9;c-1.7,7.2-16.7,9.8-20,10.3v41.2c0,4.2-1.3,7.6-3.9,10C321.6,331.5,315,332.5,308.3,332.5z M190.9,215.3c-3.3,0-6.6,0.7-9.6,2.2&#10;&#9;&#9;c-6.7,3.5-10.5,10.6-10.7,20c-0.1,4,1.4,8,4.2,10.8c9.8,10.3,33.2,11,33.4,11c0.3,0,0.6,0.2,0.7,0.5c0.1,0.4,10.5,37.8,17.9,49.2&#10;&#9;&#9;s66.4,21.2,76.1,21.8c8.1,0.4,17,0.3,21.7-4.2c2.3-2.1,3.4-5.2,3.4-9v-41.8c0-0.4,0.3-0.6,0.6-0.7c0.2,0,17.8-2.3,19.4-9.3&#10;&#9;&#9;c1.2-5-8.4-25.1-14.7-38.4c-2.9-6.1-5.3-11-6.1-13.5c-1.7-4.7-1.3-9.7-0.7-17.9c0.5-6.3,1.1-14.1,1-25l0,0&#10;&#9;&#9;c-0.1-30.6-38.5-59.9-54.8-62.8c-2.4-0.4-5.5-0.5-6.4,1.8c-2,5.3-0.8,22.9,0.4,41.4c1.6,24.1,3.3,49-1,56.2&#10;&#9;&#9;c-7.6,13-52.1,14.8-54,14.9c-0.1,0-0.3,0-0.4-0.1C204.2,217.7,197.2,215.3,190.9,215.3z"/>
	<path class="st1_artificial-intelligence-92" d="M328.8,297.8h-48.9c-0.4,0-0.7-0.3-0.7-0.7c0-0.4,0.3-0.7,0.7-0.7h48.9c0.4,0,0.7,0.3,0.7,0.7&#10;&#9;&#9;C329.5,297.5,329.2,297.8,328.8,297.8z"/>
	<path class="st1_artificial-intelligence-92" d="M299.8,206c-6.1-0.1-11.9-2.1-16.7-5.8c-0.3-0.3-0.3-0.7,0-1c0.2-0.3,0.6-0.3,0.9-0.1&#10;&#9;&#9;c0.6,0.5,14.5,12.1,31.7,0c0.3-0.2,0.8-0.1,1,0.2c0.2,0.3,0.1,0.7-0.2,0.9C311.7,203.9,305.8,205.9,299.8,206z"/>
	<polygon class="st3_artificial-intelligence-92 targetColor" points="324.8,397.9 142.3,397.9 157.1,351.2 310,351.2 &#9;" style="fill: rgb(255, 255, 255);"/>
	<path class="st1_artificial-intelligence-92" d="M312.9,381h-162c-0.4,0-0.7-0.3-0.7-0.7c0-0.4,0.3-0.7,0.7-0.7c0,0,0,0,0,0h162c0.4,0,0.7,0.3,0.7,0.7&#10;&#9;&#9;S313.3,381,312.9,381C312.9,381,312.9,381,312.9,381z"/>
</g>
<g id="Gears_artificial-intelligence-92">
	<path class="st3_artificial-intelligence-92 targetColor" d="M202,174.5c0.4-1.3,0.9-2.6,1.3-3.9c0.2-0.7,0.5-1.3,0.8-2c0.3-0.8,1.1-1.4,2-1.2c1,0.1,2.1,0.3,3.1,0.5&#10;&#9;&#9;c0.5,0.1,1.1,0.2,1.7,0.2c0.4,0,0.8-0.1,1.1-0.4c1.2-1.1,2.3-2.3,3.4-3.5c0.4-0.5,0.5-1.1,0.4-1.6c-0.3-1.3-0.6-2.5-0.8-3.8&#10;&#9;&#9;c-0.1-0.5-0.2-1-0.1-1.5c0-0.4,0.2-0.7,0.5-0.9c1.9-1.3,4-2.2,6.2-2.8c0.7-0.2,1.4,0,1.8,0.6c0.8,1.1,1.6,2.1,2.4,3.3&#10;&#9;&#9;c0.5,0.9,1.5,1.3,2.4,1.2c1.4-0.1,2.8-0.1,4.1-0.2c0.5,0,1-0.3,1.2-0.8c0.5-0.7,1-1.5,1.4-2.2s0.8-1.3,1.3-1.9&#10;&#9;&#9;c0.4-0.6,1.2-0.9,1.9-0.7c1.9,0.7,3.8,1.3,5.7,2.1c0.7,0.3,1.1,1.1,1,1.8c-0.1,1.1-0.3,2.1-0.5,3.1c-0.1,0.5-0.2,1-0.2,1.5&#10;&#9;&#9;c-0.1,0.6,0.2,1.3,0.6,1.7c1,0.9,2,1.9,3,2.9c0.6,0.6,1.4,0.9,2.2,0.6c1.4-0.3,2.7-0.6,4.1-0.9c0.9-0.3,1.9,0.2,2.3,1.1&#10;&#9;&#9;c0.8,1.6,1.5,3.3,2.2,4.9c0.6,0.9,0.3,2.1-0.6,2.7c0,0,0,0-0.1,0c-0.7,0.6-1.5,1-2.2,1.6c-0.5,0.4-1,0.8-1.5,1.2&#10;&#9;&#9;c-0.4,0.3-0.6,0.9-0.6,1.4c0,1.4,0.1,2.9,0.1,4.3c0,0.8,0.5,1.5,1.1,1.9c0.8,0.5,1.6,0.9,2.3,1.4c0.5,0.3,1,0.6,1.4,0.9&#10;&#9;&#9;c0.7,0.4,0.9,1.3,0.6,2c-0.6,1.7-1.3,3.4-1.9,5.1c-0.1,0.3-0.2,0.5-0.4,0.7c-0.3,0.6-1,0.9-1.6,0.8l-3.7-0.6h-0.3&#10;&#9;&#9;c-1.1-0.3-2.2,0.1-2.8,1c-0.7,0.8-1.5,1.6-2.2,2.4c-0.7,0.7-1,1.7-0.7,2.7c0.3,1.2,0.6,2.4,0.9,3.6c0.4,0.9,0,1.9-0.9,2.3&#10;&#9;&#9;c-0.1,0-0.1,0.1-0.2,0.1c-1.7,0.8-3.4,1.6-5.1,2.3c-0.8,0.4-1.8,0.2-2.2-0.6c-0.7-0.8-1.3-1.7-1.9-2.6c-1.3-1.9-1.7-2-3.9-1.9&#10;&#9;&#9;l-2.7,0.1c-0.9,0-1.7,0.5-2.1,1.2c-0.6,0.9-1.1,1.8-1.6,2.7c-0.3,0.5-0.6,0.9-1,1.3c-0.3,0.4-0.9,0.6-1.4,0.4&#10;&#9;&#9;c-1.8-0.7-3.6-1.3-5.4-2c-0.2-0.1-0.5-0.2-0.7-0.4c-0.6-0.3-0.9-1-0.8-1.6c0.2-1.2,0.4-2.4,0.6-3.7c0.1-0.4,0.1-0.7,0.1-1.1&#10;&#9;&#9;c0.1-0.6-0.2-1.2-0.6-1.6c-1-0.9-1.9-1.8-2.9-2.7c-0.6-0.6-1.4-0.8-2.1-0.5c-1.2,0.3-2.4,0.6-3.6,0.8h-0.1&#10;&#9;&#9;c-1.6,0.3-2.1,0.1-2.8-1.4c-0.8-1.6-1.5-3.3-2.1-4.9c-0.5-0.8-0.2-1.7,0.6-2.2c0,0,0.1,0,0.1-0.1c1-0.7,1.9-1.4,3-2.1&#10;&#9;&#9;c1-0.6,1.6-1.7,1.4-2.9c-0.1-1.3-0.1-2.6-0.2-3.8c0-0.5-0.3-1.1-0.8-1.3c-1.1-0.7-2.1-1.4-3.2-2c-0.8-0.4-1.4-1-1.7-1.8V174.5z&#10;&#9;&#9; M242.8,181.7c0-6.7-5.4-12.2-12.2-12.2c0,0-0.1,0-0.1,0c-6.6,0.2-11.9,5.6-12,12.2c0,6.7,5.4,12.1,12.1,12.1&#10;&#9;&#9;C238.4,193.8,243.1,187.1,242.8,181.7L242.8,181.7z" style="fill: rgb(255, 255, 255);"/>
	<path class="st2_artificial-intelligence-92" d="M146.6,183l1.1-3.1c0.2-0.5,0.4-1.1,0.6-1.6c0.2-0.7,0.9-1.1,1.6-1c0.8,0.1,1.7,0.3,2.5,0.4&#10;&#9;&#9;c0.4,0.1,0.9,0.2,1.4,0.2c0.3,0,0.7-0.1,0.9-0.3c1-0.9,1.9-1.9,2.8-2.9c0.3-0.4,0.4-0.9,0.3-1.3c-0.2-1-0.5-2-0.7-3&#10;&#9;&#9;c-0.1-0.4-0.1-0.8-0.1-1.2c0-0.3,0.2-0.6,0.4-0.8c1.5-1,3.2-1.8,5-2.3c0.5-0.2,1.1,0,1.4,0.5c0.6,0.9,1.3,1.8,1.9,2.6&#10;&#9;&#9;c0.4,0.7,1.2,1.1,2,1c1.1-0.1,2.2-0.1,3.3-0.2c0.4,0,0.8-0.2,1-0.6c0.4-0.6,0.8-1.2,1.2-1.8s0.7-1,1-1.5c0.3-0.5,1-0.7,1.5-0.5&#10;&#9;&#9;c1.5,0.5,3.1,1.1,4.6,1.7c0.6,0.2,0.9,0.9,0.8,1.5c-0.1,0.9-0.3,1.7-0.4,2.6c-0.1,0.4-0.1,0.8-0.2,1.2c-0.1,0.5,0.1,1,0.5,1.4&#10;&#9;&#9;c0.8,0.8,1.6,1.5,2.4,2.3c0.5,0.5,1.2,0.7,1.8,0.5c1.1-0.2,2.2-0.5,3.3-0.8c0.8-0.3,1.6,0.1,1.8,0.9c0.6,1.3,1.2,2.6,1.8,4&#10;&#9;&#9;c0.5,0.7,0.2,1.7-0.5,2.2c0,0,0,0-0.1,0c-0.6,0.4-1.2,0.8-1.8,1.3c-0.4,0.3-0.8,0.6-1.2,1c-0.3,0.3-0.5,0.7-0.5,1.1&#10;&#9;&#9;c0,1.2,0.1,2.3,0.1,3.5c0,0.6,0.4,1.2,0.9,1.5c0.6,0.4,1.3,0.7,1.9,1.1c0.4,0.2,0.8,0.5,1.1,0.8c0.5,0.4,0.8,1,0.5,1.6&#10;&#9;&#9;c-0.5,1.4-1,2.8-1.6,4.2c-0.1,0.2-0.2,0.4-0.3,0.6c-0.3,0.5-0.8,0.7-1.3,0.6l-3-0.5h-0.2c-0.9-0.2-1.8,0.1-2.3,0.8&#10;&#9;&#9;c-0.6,0.7-1.2,1.3-1.8,1.9c-0.6,0.6-0.8,1.4-0.6,2.2c0.2,1,0.5,2,0.7,2.9c0.3,0.7,0,1.6-0.8,1.9c-0.1,0-0.1,0-0.2,0.1&#10;&#9;&#9;c-1.4,0.7-2.7,1.3-4.1,1.9c-0.6,0.3-1.4,0.1-1.8-0.5c-0.5-0.7-1-1.4-1.5-2.1c-1.1-1.5-1.3-1.6-3.2-1.6l-2.2,0.1&#10;&#9;&#9;c-0.7,0-1.3,0.4-1.7,1c-0.4,0.7-0.9,1.5-1.3,2.2c-0.2,0.4-0.5,0.7-0.8,1c-0.3,0.3-0.7,0.5-1.1,0.3l-4.4-1.6&#10;&#9;&#9;c-0.2-0.1-0.4-0.2-0.6-0.3c-0.5-0.3-0.7-0.8-0.6-1.3c0.2-1,0.3-2,0.5-3c0-0.3,0.1-0.6,0.1-0.9c0.1-0.5-0.1-1-0.5-1.3l-2.3-2.3&#10;&#9;&#9;c-0.5-0.4-1.1-0.6-1.7-0.4c-1,0.2-1.9,0.4-2.9,0.7h-0.1c-1.3,0.2-1.7,0.1-2.2-1.1s-1.2-2.6-1.7-4c-0.4-0.6-0.1-1.4,0.5-1.8&#10;&#9;&#9;c0,0,0,0,0,0c0.8-0.6,1.6-1.2,2.4-1.7c0.8-0.5,1.3-1.4,1.2-2.3c-0.1-1-0.1-2.1-0.1-3.1c0-0.4-0.2-0.8-0.6-1.1&#10;&#9;&#9;c-0.9-0.6-1.7-1.1-2.6-1.7c-0.6-0.3-1.1-0.8-1.4-1.4L146.6,183z M179.7,188.8c0-5.5-4.4-9.9-9.9-9.9c0,0-0.1,0-0.1,0&#10;&#9;&#9;c-5.4,0.2-9.7,4.5-9.7,9.9c0,5.4,4.4,9.8,9.8,9.8c5.4,0.1,9.8-4.2,9.9-9.6C179.7,188.9,179.7,188.9,179.7,188.8L179.7,188.8z"/>
	<path class="st1_artificial-intelligence-92" d="M164.2,212.8c-0.2,0-0.4,0-0.6-0.1l-1.1-0.4l-3.2-1.2c-0.2-0.1-0.4-0.2-0.6-0.3c-0.7-0.4-1.1-1.2-1-2l0.5-3&#10;&#9;&#9;c0-0.3,0.1-0.6,0.1-0.8c0-0.3-0.1-0.6-0.3-0.8c-0.7-0.6-1.4-1.3-2.1-1.9l-0.3-0.3c-0.3-0.3-0.7-0.4-1.1-0.2&#10;&#9;&#9;c-0.7,0.2-1.4,0.3-2.1,0.5l-0.9,0.2h-0.1c-1.6,0.3-2.3,0-3-1.5s-1.3-2.9-1.7-4c-0.5-0.9-0.2-2.1,0.8-2.6c0.9-0.7,1.7-1.2,2.4-1.7&#10;&#9;&#9;c0.6-0.3,0.9-1,0.9-1.7c0-0.7-0.1-1.3-0.1-2v-1.1c0-0.2-0.1-0.4-0.3-0.5l-1.1-0.7c-0.5-0.3-1-0.6-1.5-1c-0.7-0.4-1.3-1-1.6-1.8&#10;&#9;&#9;c0-0.1,0-0.1,0-0.2V183c0-0.1,0-0.2,0-0.2l0.3-0.9c0.3-0.8,0.5-1.5,0.8-2.2c0.2-0.6,0.4-1.1,0.6-1.6c0.4-1,1.3-1.6,2.4-1.4&#10;&#9;&#9;c0.6,0.1,1.1,0.2,1.7,0.3l0.8,0.1l0.4,0.1c0.3,0.1,0.6,0.1,0.9,0.1c0.2,0,0.3,0,0.5-0.1c1-1,2-2,2.8-2.8c0.2-0.2,0.2-0.5,0.1-0.7&#10;&#9;&#9;c-0.1-0.4-0.2-0.9-0.3-1.3s-0.3-1.1-0.4-1.7c-0.1-0.5-0.2-0.9-0.1-1.4c0-0.5,0.3-1,0.7-1.3c1.6-1,3.4-1.9,5.2-2.4&#10;&#9;&#9;c0.8-0.2,1.7,0.1,2.2,0.8c0.2,0.3,0.4,0.6,0.7,0.9c0.4,0.6,0.9,1.1,1.3,1.7c0.3,0.5,0.8,0.8,1.4,0.7c0.7-0.1,1.4-0.1,2.2-0.1&#10;&#9;&#9;l1.2-0.1c0.2,0,0.4-0.1,0.5-0.3l0.7-1l0.6-1c0.3-0.4,0.6-0.9,0.9-1.3c0.5-0.8,1.5-1.1,2.3-0.8c1.6,0.5,3.1,1.1,4.6,1.7&#10;&#9;&#9;c0.9,0.3,1.4,1.3,1.3,2.2c-0.1,0.6-0.2,1.2-0.3,1.7c0,0.3-0.1,0.6-0.1,0.9s-0.1,0.8-0.1,1.1c0,0.3,0.1,0.6,0.3,0.9l0.6,0.6&#10;&#9;&#9;c0.6,0.6,1.2,1.2,1.9,1.8c0.3,0.3,0.8,0.4,1.2,0.3c0.5-0.1,1.1-0.2,1.6-0.4l1.7-0.4c1.1-0.3,2.2,0.2,2.6,1.3c0.6,1.3,1.2,2.6,1.8,4&#10;&#9;&#9;c0.6,1,0.2,2.4-0.8,3c-0.4,0.3-0.7,0.5-1.1,0.8l-0.7,0.5c-0.4,0.3-0.8,0.6-1.2,0.9c-0.2,0.1-0.3,0.4-0.3,0.6v0.7&#10;&#9;&#9;c0,0.9,0,1.8,0.1,2.7c0,0.4,0.2,0.8,0.6,1l0.8,0.5l1.1,0.7c0.4,0.2,0.8,0.5,1.2,0.8c0.8,0.5,1.1,1.6,0.7,2.4&#10;&#9;&#9;c-0.5,1.4-1,2.8-1.6,4.2c-0.1,0.2-0.2,0.5-0.4,0.7c-0.4,0.7-1.2,1.1-2,1l-3-0.5l-0.3-0.1c-0.6-0.2-1.2,0.1-1.6,0.6&#10;&#9;&#9;c-0.4,0.5-0.9,0.9-1.3,1.4l-0.5,0.6c-0.4,0.4-0.6,1-0.4,1.5c0.2,1,0.5,2,0.7,3c0.4,1.1-0.2,2.3-1.3,2.7c0,0,0,0,0,0&#10;&#9;&#9;c-1.2,0.6-2.6,1.2-4.1,1.9c-0.9,0.5-2.1,0.2-2.6-0.7c-0.4-0.6-0.9-1.1-1.3-1.7l-0.3-0.4c-0.9-1.3-1-1.4-2.6-1.3l-2.2,0.1&#10;&#9;&#9;c-0.5,0-0.9,0.2-1.1,0.7l-0.4,0.7c-0.3,0.5-0.6,1-0.9,1.5c-0.3,0.4-0.6,0.8-0.9,1.1C165.2,212.6,164.7,212.8,164.2,212.8z&#10;&#9;&#9; M154.8,200.1c0.6,0,1.2,0.2,1.7,0.7l0.3,0.3c0.7,0.6,1.4,1.3,2.1,1.9c0.5,0.5,0.8,1.2,0.7,1.9c0,0.3,0,0.6-0.1,1l-0.5,3&#10;&#9;&#9;c0,0.2,0.1,0.5,0.3,0.6c0.1,0.1,0.3,0.2,0.4,0.2l3.2,1.2l1.1,0.4c0.1,0,0.2,0.1,0.4-0.1c0.3-0.3,0.5-0.6,0.8-0.9&#10;&#9;&#9;c0.3-0.5,0.6-0.9,0.9-1.4l0.4-0.8c0.5-0.8,1.3-1.3,2.3-1.3l2.2-0.1c2.1-0.1,2.6,0.1,3.8,1.8l0.3,0.4c0.4,0.6,0.8,1.1,1.2,1.7&#10;&#9;&#9;c0.2,0.3,0.6,0.5,0.9,0.3c0,0,0.1,0,0.1,0c1.5-0.7,2.9-1.3,4.1-1.9c0.7-0.3,0.7-0.4,0.6-1.2c-0.2-1-0.4-1.9-0.7-2.9&#10;&#9;&#9;c-0.3-1,0-2.1,0.7-2.8l0.6-0.6c0.4-0.4,0.8-0.8,1.2-1.3c0.7-0.9,1.9-1.3,3-1h0.2l3,0.5c0.2,0,0.5-0.1,0.6-0.3&#10;&#9;&#9;c0.1-0.1,0.2-0.3,0.3-0.4c0.5-1.4,1-2.8,1.6-4.2c0.1-0.3,0-0.7-0.3-0.9c-0.3-0.3-0.7-0.5-1.1-0.7l-1.1-0.6l-0.8-0.5&#10;&#9;&#9;c-0.8-0.4-1.2-1.2-1.3-2.1c0-0.9-0.1-1.8-0.1-2.8v-0.7c0-0.7,0.3-1.3,0.8-1.7c0.4-0.4,0.8-0.7,1.3-1c0.2-0.2,0.5-0.4,0.7-0.5&#10;&#9;&#9;s0.7-0.5,1-0.7c0.6-0.5,0.6-0.7,0.4-1.4c-0.6-1.3-1.2-2.6-1.8-4c-0.1-0.4-0.6-0.7-1-0.5c0,0,0,0-0.1,0l-1.7,0.4l-1.6,0.4&#10;&#9;&#9;c-0.9,0.2-1.8,0-2.4-0.7c-0.6-0.6-1.2-1.2-1.8-1.8l-0.6-0.6c-0.5-0.5-0.8-1.3-0.7-2c0-0.4,0.1-0.8,0.2-1.3s0.1-0.6,0.1-0.9&#10;&#9;&#9;c0.1-0.5,0.2-1.1,0.2-1.6c0.1-0.3-0.1-0.6-0.4-0.8c-1.5-0.6-3.1-1.1-4.6-1.6c-0.2-0.1-0.5-0.1-0.7,0.3s-0.6,0.8-0.8,1.2l-0.6,1&#10;&#9;&#9;c-0.2,0.4-0.5,0.7-0.7,1.1c-0.3,0.5-0.9,0.9-1.6,0.9l-1.2,0.1c-0.7,0-1.4,0-2.1,0.1c-1.1,0.1-2.1-0.4-2.6-1.3&#10;&#9;&#9;c-0.4-0.6-0.8-1.1-1.2-1.7l-0.7-0.9c-0.1-0.2-0.4-0.4-0.7-0.3c-1.7,0.5-3.3,1.2-4.8,2.2c0,0.1-0.1,0.2-0.1,0.2c0,0.3,0,0.7,0.1,1&#10;&#9;&#9;c0.1,0.6,0.2,1.1,0.4,1.7s0.2,0.9,0.3,1.4c0.2,0.7,0,1.5-0.5,2c-0.8,0.9-1.8,1.9-2.8,2.9c-0.4,0.3-0.9,0.5-1.4,0.5&#10;&#9;&#9;c-0.4,0-0.8-0.1-1.2-0.1l-0.3-0.1c-0.3,0-0.6-0.1-0.9-0.1c-0.5-0.1-1.1-0.2-1.6-0.2c-0.4-0.1-0.8,0.2-0.9,0.6&#10;&#9;&#9;c-0.2,0.5-0.4,1-0.6,1.6c-0.3,0.7-0.5,1.5-0.8,2.2l-0.3,0.9c0.2,0.4,0.6,0.8,1,1l1.5,1l1.1,0.7c0.6,0.4,0.9,1,0.9,1.6l0.1,1.2&#10;&#9;&#9;c0,0.6,0.1,1.3,0.1,1.9c0.1,1.2-0.4,2.4-1.5,3c-0.7,0.5-1.5,1-2.4,1.7c-0.5,0.4-0.5,0.5-0.3,1c0.4,1.1,1,2.5,1.7,3.9&#10;&#9;&#9;c0.4,0.9,0.5,0.9,1.5,0.7l0.9-0.2c0.7-0.2,1.4-0.3,2.1-0.5C154.3,200.3,154.5,200.2,154.8,200.1L154.8,200.1z M169.8,199.4&#10;&#9;&#9;L169.8,199.4c-5.8,0-10.6-4.7-10.6-10.5s4.7-10.6,10.5-10.6l0,0c5.8-0.1,10.6,4.6,10.6,10.4c0,0,0,0.1,0,0.1&#10;&#9;&#9;c0.1,2.7-0.9,5.3-2.8,7.3C175.5,198.2,172.7,199.4,169.8,199.4L169.8,199.4z M169.7,179.6c-2.4,0.1-4.6,1.1-6.3,2.8&#10;&#9;&#9;c-1.7,1.7-2.7,4-2.7,6.4c0,5,4.1,9.1,9.1,9.1l0,0c2.5,0,5-1,6.7-2.9c1.6-1.7,2.5-3.9,2.4-6.2l0,0c0-5.1-4.1-9.2-9.1-9.2&#10;&#9;&#9;C169.8,179.7,169.7,179.7,169.7,179.6L169.7,179.6z"/>
	<path class="st2_artificial-intelligence-92" d="M190.3,140.5c0.2-0.6,0.4-1.3,0.6-1.9c0.1-0.3,0.2-0.6,0.4-1c0.2-0.4,0.6-0.7,1-0.6c0.5,0,1,0.2,1.5,0.2&#10;&#9;&#9;c0.3,0.1,0.6,0.1,0.8,0.1c0.2,0,0.4-0.1,0.6-0.2c0.6-0.6,1.1-1.1,1.7-1.7c0.2-0.2,0.3-0.5,0.2-0.8c-0.1-0.6-0.3-1.2-0.4-1.9&#10;&#9;&#9;c-0.1-0.2-0.1-0.5-0.1-0.7c0-0.2,0.1-0.4,0.2-0.5c0.9-0.6,2-1.1,3.1-1.4c0.3-0.1,0.7,0,0.9,0.3c0.4,0.5,0.8,1.1,1.2,1.6&#10;&#9;&#9;c0.3,0.4,0.7,0.7,1.2,0.6c0.7-0.1,1.4-0.1,2-0.1c0.3,0,0.5-0.2,0.6-0.4l0.7-1.1c0.2-0.3,0.4-0.6,0.6-0.9c0.2-0.3,0.6-0.5,0.9-0.3&#10;&#9;&#9;c0.9,0.3,1.9,0.7,2.8,1c0.4,0.1,0.6,0.5,0.5,0.9c-0.1,0.5-0.2,1-0.2,1.6c0,0.2-0.1,0.5-0.1,0.7c0,0.3,0.1,0.6,0.3,0.9&#10;&#9;&#9;c0.5,0.5,1,0.9,1.5,1.4c0.3,0.3,0.7,0.4,1.1,0.3c0.7-0.1,1.3-0.3,2-0.4c0.5-0.2,1,0.1,1.1,0.5c0.4,0.8,0.8,1.6,1.1,2.4&#10;&#9;&#9;c0.3,0.5,0.1,1.1-0.3,1.3c-0.4,0.3-0.7,0.5-1.1,0.8s-0.5,0.4-0.8,0.6c-0.2,0.2-0.3,0.4-0.3,0.7c0,0.7,0,1.4,0.1,2.1&#10;&#9;&#9;c0,0.4,0.2,0.7,0.6,0.9c0.4,0.2,0.8,0.4,1.2,0.7c0.2,0.1,0.5,0.3,0.7,0.5c0.3,0.2,0.5,0.6,0.3,1c-0.3,0.9-0.6,1.7-0.9,2.5&#10;&#9;&#9;c-0.1,0.1-0.1,0.2-0.2,0.4c-0.2,0.3-0.5,0.4-0.8,0.4l-1.8-0.3h-0.1c-0.5-0.1-1.1,0.1-1.4,0.5c-0.4,0.4-0.7,0.8-1.1,1.1&#10;&#9;&#9;c-0.4,0.3-0.5,0.9-0.3,1.3c0.1,0.6,0.3,1.2,0.4,1.8c0.2,0.4,0,1-0.5,1.1c0,0-0.1,0-0.1,0c-0.8,0.4-1.7,0.8-2.5,1.1&#10;&#9;&#9;c-0.4,0.2-0.9,0.1-1.1-0.3c-0.3-0.4-0.6-0.8-0.9-1.3c-0.6-0.9-0.8-1-1.9-0.9l-1.3,0.1c-0.4,0-0.8,0.2-1,0.6&#10;&#9;&#9;c-0.3,0.4-0.5,0.9-0.8,1.3c-0.2,0.2-0.3,0.4-0.5,0.6c-0.2,0.2-0.5,0.3-0.7,0.2l-2.7-1c-0.1,0-0.2-0.1-0.3-0.2&#10;&#9;&#9;c-0.3-0.2-0.4-0.5-0.4-0.8l0.3-1.8c0-0.2,0-0.4,0-0.6c0-0.3-0.1-0.6-0.3-0.8l-1.3-1.3c-0.3-0.3-0.7-0.4-1.1-0.2l-1.8,0.4h-0.1&#10;&#9;&#9;c-0.8,0.1-1,0-1.4-0.7s-0.7-1.6-1-2.4c-0.2-0.4-0.1-0.9,0.3-1.1c0,0,0,0,0,0c0.5-0.4,0.9-0.7,1.4-1c0.5-0.3,0.8-0.8,0.7-1.4&#10;&#9;&#9;c0-0.6,0-1.3-0.1-1.9c0-0.3-0.1-0.5-0.4-0.7l-1.6-1c-0.4-0.2-0.7-0.5-0.8-0.9L190.3,140.5z M210.4,144.1c0-3.3-2.7-6-6-6&#10;&#9;&#9;c-3.3,0.1-5.9,2.7-5.9,6c0,3.3,2.7,6,6,6C207.8,150,210.4,147.4,210.4,144.1C210.4,144.1,210.4,144.1,210.4,144.1z"/>
	<path class="st1_artificial-intelligence-92" d="M201,158.9c-0.2,0-0.3,0-0.5-0.1l-0.7-0.2l-2-0.8c-0.2-0.1-0.3-0.1-0.4-0.2c-0.5-0.3-0.8-0.9-0.7-1.5l0.3-1.8&#10;&#9;&#9;c0-0.2,0-0.3,0.1-0.5c0-0.2,0-0.2-0.1-0.3l-1.3-1.2l-0.2-0.2c-0.1-0.1-0.3-0.1-0.4-0.1l-1.2,0.3l-0.6,0.1c-1.2,0.2-1.8-0.1-2.2-1&#10;&#9;&#9;c-0.4-0.8-0.7-1.6-1.1-2.5c-0.3-0.7-0.1-1.5,0.5-1.9c0.5-0.4,1-0.7,1.5-1.1c0.3-0.1,0.4-0.5,0.4-0.8c0-0.4-0.1-0.8-0.1-1.2v-0.7&#10;&#9;&#9;l-0.7-0.5l-0.9-0.6c-0.5-0.3-0.9-0.7-1.1-1.2c0-0.1,0-0.1,0-0.2v-0.2c0-0.1,0-0.2,0-0.2l0.2-0.6l0.4-1.3c0.1-0.3,0.3-0.7,0.4-1&#10;&#9;&#9;c0.3-0.7,1-1.1,1.7-1c0.4,0,0.7,0.1,1.1,0.2l0.7,0.1c0.2,0,0.3,0.1,0.5,0.1h0.1c0.5-0.5,1.1-1.1,1.6-1.7c0-0.1,0-0.1,0-0.2&#10;&#9;&#9;l-0.2-0.8c-0.1-0.4-0.2-0.7-0.2-1c-0.1-0.3-0.1-0.6-0.1-0.9c0-0.4,0.2-0.8,0.6-1c1-0.7,2.1-1.2,3.2-1.5c0.6-0.2,1.3,0,1.6,0.6&#10;&#9;&#9;l0.4,0.6c0.3,0.4,0.5,0.7,0.8,1.1c0.1,0.2,0.3,0.3,0.6,0.3c0.4,0,0.9-0.1,1.3-0.1h0.7c0.2-0.3,0.4-0.5,0.5-0.7l0.4-0.6&#10;&#9;&#9;c0.2-0.3,0.3-0.5,0.5-0.8c0.4-0.6,1.1-0.8,1.7-0.6c1,0.3,1.9,0.7,2.8,1c0.7,0.3,1.1,0.9,0.9,1.6c0,0.4-0.1,0.7-0.2,1.1l-0.1,0.5&#10;&#9;&#9;c0,0.2-0.1,0.5-0.1,0.7c0,0.1,0,0.2,0.1,0.3l0.3,0.3c0.4,0.4,0.8,0.7,1.2,1.1c0.1,0.1,0.3,0.2,0.5,0.1l0.9-0.2l1.1-0.2&#10;&#9;&#9;c0.8-0.2,1.6,0.2,1.9,0.9c0.4,0.8,0.8,1.6,1.1,2.4c0.4,0.8,0.2,1.7-0.6,2.2c-0.2,0.2-0.4,0.3-0.7,0.5l-0.4,0.3&#10;&#9;&#9;c-0.2,0.2-0.5,0.4-0.7,0.6c0,0-0.1,0.1-0.1,0.1v0.4c0,0.6,0,1.1,0.1,1.7c0,0.2,0.1,0.3,0.2,0.4l0.5,0.3l0.7,0.4&#10;&#9;&#9;c0.3,0.2,0.5,0.3,0.8,0.5c0.6,0.4,0.8,1.1,0.5,1.8c-0.3,0.9-0.6,1.7-1,2.5c-0.1,0.2-0.2,0.3-0.3,0.5c-0.3,0.5-0.9,0.8-1.5,0.7&#10;&#9;&#9;l-1.8-0.3h-0.2c-0.3-0.1-0.6,0-0.7,0.3c-0.2,0.3-0.5,0.6-0.8,0.9l-0.3,0.3c-0.2,0.2-0.2,0.4-0.2,0.7c0.1,0.6,0.3,1.2,0.4,1.8&#10;&#9;&#9;c0.3,0.8-0.2,1.7-1,1.9c-0.8,0.4-1.7,0.8-2.5,1.1c-0.7,0.3-1.5,0.1-1.9-0.5c-0.3-0.3-0.5-0.7-0.8-1.1l-0.2-0.2&#10;&#9;&#9;c-0.5-0.7-0.5-0.7-1.3-0.6l-1.3,0.1c-0.2,0-0.4,0.1-0.5,0.3L203,157l-0.6,0.9c-0.2,0.3-0.4,0.5-0.6,0.7&#10;&#9;&#9;C201.6,158.8,201.3,158.9,201,158.9z M195.3,150.7c0.4,0,0.9,0.2,1.2,0.5l0.2,0.2l1.3,1.2c0.4,0.3,0.6,0.9,0.5,1.4&#10;&#9;&#9;c0,0.2,0,0.4-0.1,0.6l-0.3,1.8l0.1,0.1l0.2,0.1l2,0.7l0.7,0.2c0.1-0.2,0.2-0.3,0.4-0.5s0.4-0.6,0.5-0.9l0.3-0.4&#10;&#9;&#9;c0.3-0.6,0.9-0.9,1.6-0.9l1.3-0.1c1-0.2,2.1,0.3,2.6,1.2l0.2,0.2c0.2,0.3,0.5,0.7,0.7,1c0,0.1,0.1,0.1,0.1,0.1l0,0&#10;&#9;&#9;c0.1,0,0.1,0,0.2,0c0.8-0.4,1.7-0.7,2.5-1.1c0.1,0,0.2-0.1,0.2-0.1l0,0c0,0,0-0.1,0-0.3c-0.1-0.6-0.3-1.2-0.4-1.8&#10;&#9;&#9;c-0.2-0.7,0-1.5,0.5-2l0.3-0.4c0.3-0.2,0.5-0.5,0.7-0.8c0.5-0.6,1.3-0.9,2.1-0.7l1.9,0.3l0.1-0.1c0-0.1,0.1-0.1,0.1-0.2&#10;&#9;&#9;c0.3-0.8,0.6-1.7,0.9-2.5c0-0.1,0-0.1-0.1-0.2c-0.2-0.2-0.4-0.3-0.6-0.4l-0.6-0.4l-0.5-0.3c-0.5-0.3-0.9-0.9-0.9-1.5&#10;&#9;&#9;c0-0.6,0-1.1,0-1.7v-0.4c0-0.5,0.2-0.9,0.6-1.2c0.3-0.2,0.5-0.4,0.8-0.6l0.5-0.3c0.2-0.1,0.4-0.3,0.6-0.4s0.3-0.2,0.1-0.5&#10;&#9;&#9;c-0.4-0.8-0.7-1.6-1.1-2.4c-0.1-0.2-0.1-0.2-0.4-0.1l-1,0.2l-1,0.2c-0.6,0.2-1.3,0-1.8-0.5c-0.4-0.4-0.7-0.7-1.1-1.1l-0.3-0.3&#10;&#9;&#9;c-0.4-0.4-0.6-0.9-0.5-1.4c0-0.3,0.1-0.5,0.1-0.8l0.1-0.6c0.1-0.3,0.1-0.6,0.1-1c0-0.1,0-0.2-0.1-0.2c-0.9-0.4-1.9-0.7-2.8-1&#10;&#9;&#9;l-0.1,0.1c-0.2,0.2-0.3,0.5-0.5,0.7L207,132l-0.4,0.7c-0.3,0.4-0.7,0.7-1.2,0.7h-0.7l-1.3,0.1c-0.7,0.1-1.4-0.3-1.8-0.9&#10;&#9;&#9;c-0.2-0.4-0.5-0.7-0.7-1l-0.4-0.6c-1.1,0.2-2.1,0.6-3,1.3c0.1,0.1,0.1,0.3,0.1,0.5c0.1,0.3,0.1,0.7,0.2,1l0.2,0.8&#10;&#9;&#9;c0.1,0.5,0,1-0.4,1.4c-0.6,0.6-1.1,1.2-1.7,1.8c-0.3,0.2-0.6,0.4-1,0.4c-0.3,0-0.5,0-0.8-0.1l-0.7-0.1l-1-0.1c-0.1,0-0.2,0-0.3,0.2&#10;&#9;&#9;s-0.3,0.6-0.4,0.9s-0.3,0.9-0.4,1.3l-0.2,0.5c0.1,0.2,0.3,0.3,0.5,0.4l1.6,1c0.4,0.3,0.7,0.7,0.7,1.2v0.7l0.1,1.2&#10;&#9;&#9;c0.1,0.8-0.3,1.6-1,2c-0.5,0.3-1,0.6-1.4,1c-0.1,0-0.1,0.1-0.1,0.1c0,0.1,0,0.1,0,0.2c0.3,0.8,0.7,1.6,1,2.4c0,0.1,0.1,0.2,0.2,0.3&#10;&#9;&#9;l0,0c0.1,0,0.3,0,0.4,0l0.6-0.1l1.2-0.3C194.9,150.7,195.1,150.7,195.3,150.7L195.3,150.7z M204.4,150.8L204.4,150.8&#10;&#9;&#9;c-3.7,0-6.6-3-6.6-6.7c0-1.8,0.7-3.5,2-4.7c1.2-1.2,2.9-1.9,4.6-2c3.7,0,6.7,2.9,6.7,6.6c0,0,0,0.1,0,0.1c0,1.7-0.6,3.4-1.8,4.6&#10;&#9;&#9;C208.1,150,206.3,150.8,204.4,150.8L204.4,150.8z M204.4,138.8c-1.4,0-2.7,0.6-3.6,1.6c-2.1,2.1-2.1,5.4,0,7.5c1,1,2.3,1.5,3.7,1.5&#10;&#9;&#9;l0,0c1.5,0,2.9-0.6,3.9-1.6c0.9-1,1.4-2.3,1.4-3.6v-0.1C209.7,141.1,207.4,138.7,204.4,138.8C204.4,138.7,204.4,138.7,204.4,138.8&#10;&#9;&#9;L204.4,138.8z"/>
	<path class="st2_artificial-intelligence-92" d="M215.1,121.1c0.3-0.8,0.6-1.7,0.9-2.5c0.1-0.4,0.3-0.8,0.5-1.3c0.2-0.5,0.7-0.9,1.3-0.8c0.7,0.1,1.3,0.2,2,0.3&#10;&#9;&#9;c0.4,0.1,0.7,0.1,1.1,0.1c0.3,0,0.5-0.1,0.7-0.2c0.8-0.7,1.5-1.5,2.2-2.3c0.2-0.3,0.3-0.6,0.2-1c-0.2-0.8-0.4-1.6-0.5-2.4&#10;&#9;&#9;c-0.1-0.3-0.1-0.7-0.1-1c0-0.2,0.1-0.5,0.3-0.6c1.2-0.8,2.6-1.4,4-1.8c0.4-0.1,0.9,0,1.1,0.4c0.5,0.7,1,1.4,1.5,2.1&#10;&#9;&#9;c0.3,0.6,0.9,0.9,1.6,0.8c0.9-0.1,1.8-0.1,2.6-0.1c0.3,0,0.6-0.2,0.8-0.5c0.3-0.5,0.6-0.9,0.9-1.4s0.5-0.8,0.8-1.2&#10;&#9;&#9;c0.2-0.4,0.8-0.6,1.2-0.4c1.2,0.4,2.4,0.9,3.6,1.3c0.5,0.2,0.7,0.7,0.7,1.2c-0.1,0.7-0.2,1.3-0.3,2c-0.1,0.3-0.1,0.6-0.1,1&#10;&#9;&#9;c-0.1,0.4,0.1,0.8,0.4,1.1c0.6,0.6,1.3,1.2,1.9,1.8c0.4,0.4,0.9,0.5,1.4,0.4l2.6-0.6c0.6-0.2,1.2,0.1,1.5,0.7c0.5,1,1,2.1,1.4,3.1&#10;&#9;&#9;c0.4,0.6,0.2,1.3-0.4,1.7c0,0,0,0-0.1,0c-0.4,0.4-0.9,0.7-1.4,1s-0.6,0.5-1,0.8c-0.3,0.2-0.4,0.6-0.4,0.9c0,0.9,0,1.8,0.1,2.7&#10;&#9;&#9;c0,0.5,0.3,1,0.7,1.2c0.5,0.3,1,0.6,1.5,0.9c0.3,0.2,0.6,0.4,0.9,0.6c0.4,0.3,0.6,0.8,0.4,1.3c-0.4,1.1-0.8,2.2-1.2,3.3&#10;&#9;&#9;c-0.1,0.2-0.2,0.3-0.3,0.5c-0.2,0.3-0.6,0.5-1,0.5l-2.4-0.4h-0.2c-0.7-0.2-1.4,0.1-1.8,0.6c-0.4,0.5-1,1-1.4,1.5&#10;&#9;&#9;c-0.5,0.4-0.6,1.1-0.4,1.7c0.2,0.8,0.4,1.5,0.6,2.3c0.2,0.6,0,1.2-0.6,1.5c0,0-0.1,0-0.1,0c-1.1,0.5-2.2,1-3.3,1.5&#10;&#9;&#9;c-0.5,0.3-1.1,0.1-1.4-0.4c-0.4-0.5-0.8-1.1-1.2-1.6c-0.9-1.2-1.1-1.3-2.5-1.2l-1.7,0.1c-0.6,0-1.1,0.3-1.4,0.8&#10;&#9;&#9;c-0.3,0.6-0.7,1.2-1,1.7c-0.2,0.3-0.4,0.6-0.7,0.8c-0.2,0.3-0.6,0.4-0.9,0.2l-3.5-1.3c-0.2-0.1-0.3-0.2-0.4-0.3&#10;&#9;&#9;c-0.4-0.2-0.5-0.6-0.5-1c0.1-0.8,0.3-1.6,0.4-2.4c0-0.2,0.1-0.5,0.1-0.7c0.1-0.4-0.1-0.8-0.4-1.1c-0.6-0.6-1.2-1.2-1.9-1.7&#10;&#9;&#9;c-0.4-0.4-0.9-0.5-1.4-0.3l-2.3,0.5h-0.1c-1,0.2-1.3,0.1-1.8-0.9s-0.9-2.1-1.4-3.1c-0.3-0.5-0.2-1.1,0.3-1.4c0,0,0.1,0,0.1-0.1&#10;&#9;&#9;c0.6-0.5,1.2-0.9,1.9-1.3c0.6-0.4,1-1.1,0.9-1.8c-0.1-0.8-0.1-1.7-0.1-2.5c0-0.4-0.2-0.7-0.5-0.9c-0.7-0.4-1.4-0.9-2.1-1.3&#10;&#9;&#9;c-0.5-0.2-0.9-0.6-1.1-1.1L215.1,121.1z M241.3,125.7c0-4.3-3.5-7.8-7.8-7.8c0,0,0,0-0.1,0c-4.2,0.1-7.6,3.6-7.7,7.8&#10;&#9;&#9;c0,4.3,3.5,7.7,7.7,7.8c4.3,0.1,7.8-3.4,7.8-7.6C241.3,125.8,241.3,125.7,241.3,125.7L241.3,125.7z"/>
	<path class="st1_artificial-intelligence-92" d="M229.1,144.8c-0.2,0-0.4,0-0.5-0.1l-1.1-0.4l-2.4-0.9c-0.2-0.1-0.4-0.2-0.5-0.3c-0.6-0.3-1-1-0.9-1.8l0.4-2.4&#10;&#9;&#9;c0-0.2,0.1-0.4,0.1-0.6c0-0.2,0-0.4-0.2-0.5l-1.7-1.6l-0.2-0.2c-0.2-0.2-0.5-0.3-0.7-0.2c-0.5,0.1-1.1,0.3-1.6,0.4l-0.7,0.2&#10;&#9;&#9;c-1.5,0.3-2.1,0-2.6-1.2c-0.4-0.9-0.9-1.9-1.4-3.2c-0.4-0.8-0.1-1.8,0.6-2.3c0.6-0.5,1.3-0.9,1.9-1.4c0.4-0.2,0.7-0.7,0.6-1.2&#10;&#9;&#9;c0-0.5-0.1-1-0.1-1.5v-0.9c0-0.1-0.1-0.2-0.2-0.3l-0.9-0.5l-1.2-0.8c-0.6-0.3-1.1-0.8-1.4-1.5c0-0.1,0-0.1,0-0.2v-0.3&#10;&#9;&#9;c0-0.1,0-0.2,0-0.2l0.2-0.7c0.2-0.6,0.4-1.2,0.6-1.8s0.3-0.9,0.5-1.3c0.3-0.8,1.1-1.3,2-1.2c0.5,0,0.9,0.1,1.4,0.2l1,0.2&#10;&#9;&#9;c0.2,0,0.4,0.1,0.7,0.1c0.1,0,0.2,0,0.3-0.1c0.7-0.7,1.5-1.5,2.2-2.2c0.1-0.1,0.1-0.3,0-0.4c-0.1-0.4-0.1-0.7-0.2-1.1l-0.3-1.4&#10;&#9;&#9;c-0.1-0.4-0.1-0.8-0.1-1.2c0-0.5,0.3-0.9,0.6-1.1c1.3-0.8,2.7-1.5,4.2-1.9c0.7-0.2,1.5,0.1,1.9,0.7l0.5,0.7c0.3,0.4,0.7,0.9,1,1.4&#10;&#9;&#9;c0.2,0.3,0.6,0.5,0.9,0.5c0.6,0,1.1-0.1,1.7-0.1h0.9c0.1,0,0.1,0,0.2-0.2s0.4-0.5,0.5-0.8l0.5-0.8c0.2-0.3,0.4-0.7,0.7-1&#10;&#9;&#9;c0.4-0.7,1.3-0.9,2-0.7c1.2,0.4,2.5,0.9,3.7,1.3c0.8,0.3,1.2,1.1,1.1,1.9c0,0.5-0.1,0.9-0.2,1.4L243,112c-0.1,0.3-0.1,0.6-0.1,0.9&#10;&#9;&#9;c0,0.2,0,0.4,0.2,0.6l0.4,0.4c0.5,0.5,1,1,1.5,1.4c0.2,0.2,0.5,0.3,0.8,0.2l1.3-0.3l1.3-0.3c0.9-0.3,1.9,0.2,2.2,1.1&#10;&#9;&#9;c0.5,1,1,2.1,1.4,3.2c0.5,0.9,0.2,2-0.6,2.6c-0.3,0.2-0.6,0.4-0.9,0.6s-0.4,0.3-0.6,0.4s-0.6,0.5-0.9,0.7c-0.1,0.1-0.2,0.2-0.2,0.4&#10;&#9;&#9;v0.6c0,0.7,0,1.4,0.1,2.1c0,0.3,0.2,0.5,0.4,0.7l0.6,0.4l0.9,0.5c0.3,0.2,0.7,0.4,1,0.6c0.7,0.5,0.9,1.3,0.6,2.1&#10;&#9;&#9;c-0.4,1.1-0.8,2.2-1.2,3.3c-0.1,0.2-0.2,0.4-0.3,0.6c-0.3,0.6-1,1-1.8,0.8l-2.4-0.4h-0.2c-0.4-0.1-0.9,0-1.1,0.4&#10;&#9;&#9;c-0.3,0.4-0.7,0.7-1,1.1l-0.4,0.4c-0.3,0.3-0.4,0.7-0.3,1.1c0.2,0.8,0.4,1.6,0.6,2.4c0.3,0.9-0.2,2-1.1,2.3c0,0,0,0,0,0&#10;&#9;&#9;c-1.1,0.5-2.2,1-3.3,1.5c-0.8,0.4-1.8,0.1-2.3-0.6c-0.4-0.4-0.7-0.9-1-1.4l-0.2-0.3c-0.7-1-0.7-1-1.9-0.9l-1.7,0.1&#10;&#9;&#9;c-0.3,0-0.6,0.2-0.8,0.4l-0.3,0.6c-0.2,0.4-0.5,0.8-0.7,1.2c-0.2,0.3-0.5,0.6-0.8,0.9C229.9,144.6,229.5,144.8,229.1,144.8z&#10;&#9;&#9; M221.6,134.5c0.5,0,1,0.2,1.4,0.6l0.2,0.2l1.7,1.6c0.4,0.4,0.7,1,0.6,1.6c0,0.3,0,0.5-0.1,0.8l-0.4,2.4c0,0.1,0,0.2,0.2,0.3&#10;&#9;&#9;c0.1,0.1,0.2,0.1,0.3,0.2l2.4,0.9l1.1,0.4c0,0,0.1,0,0.2-0.1c0.2-0.2,0.4-0.5,0.6-0.7c0.2-0.4,0.5-0.8,0.7-1.1l0.4-0.6&#10;&#9;&#9;c0.4-0.7,1.1-1.1,1.9-1.1l1.7-0.1c1.7-0.1,2.1,0.1,3.1,1.5l0.2,0.3c0.3,0.4,0.6,0.9,1,1.3s0.3,0.3,0.6,0.2c1.1-0.5,2.2-1,3.2-1.5&#10;&#9;&#9;c0.4-0.2,0.5-0.2,0.4-0.8c-0.2-0.8-0.3-1.5-0.5-2.3c-0.2-0.8,0-1.8,0.6-2.4l0.4-0.4c0.3-0.3,0.6-0.7,0.9-1c0.6-0.8,1.6-1.1,2.5-0.9&#10;&#9;&#9;l2.5,0.4c0.1,0,0.2,0,0.3-0.2c0.1-0.1,0.1-0.2,0.2-0.3l1.2-3.3c0.1-0.2,0-0.4-0.2-0.5c-0.3-0.2-0.6-0.4-0.8-0.6l-0.9-0.5l-0.6-0.4&#10;&#9;&#9;c-0.6-0.4-1-1-1.1-1.8c0-0.7-0.1-1.4-0.1-2.2v-0.6c0-0.6,0.2-1.1,0.6-1.4c0.3-0.3,0.7-0.6,1-0.8l0.6-0.4c0.3-0.2,0.5-0.4,0.8-0.6&#10;&#9;&#9;c0.4-0.3,0.4-0.4,0.2-0.9c-0.5-1-0.9-2.1-1.4-3.1c-0.1-0.3-0.3-0.4-0.7-0.3l-1.3,0.3l-1.3,0.3c-0.8,0.2-1.5,0-2.1-0.6&#10;&#9;&#9;c-0.5-0.5-1-1-1.5-1.4l-0.4-0.4c-0.5-0.4-0.7-1.1-0.6-1.7c0-0.3,0.1-0.7,0.1-1l0.1-0.7c0.1-0.4,0.2-0.8,0.2-1.3s-0.1-0.4-0.2-0.5&#10;&#9;&#9;c-1.2-0.5-2.4-0.9-3.6-1.3c-0.1-0.1-0.2-0.1-0.4,0.2s-0.4,0.6-0.6,1l-0.5,0.8c-0.2,0.3-0.4,0.6-0.6,0.8c-0.3,0.5-0.8,0.8-1.3,0.8&#10;&#9;&#9;h-0.9c-0.6,0-1.1,0-1.7,0.1c-0.9,0.1-1.7-0.3-2.2-1.1c-0.3-0.4-0.6-0.9-1-1.3l-0.6-0.8c-0.1-0.1-0.2-0.2-0.4-0.2&#10;&#9;&#9;c-1.3,0.4-2.6,1-3.8,1.7c0,0,0,0,0,0.1c0,0.2,0,0.5,0.1,0.7c0.1,0.4,0.2,0.9,0.3,1.3s0.2,0.7,0.2,1.1c0.2,0.6,0,1.2-0.4,1.7&#10;&#9;&#9;c-0.7,0.8-1.5,1.6-2.2,2.3c-0.3,0.3-0.8,0.4-1.2,0.4c-0.3,0-0.6,0-0.9-0.1l-0.9-0.2c-0.4-0.1-0.9-0.2-1.3-0.2&#10;&#9;&#9;c-0.3,0-0.5,0.1-0.6,0.4c-0.2,0.4-0.3,0.8-0.5,1.2c-0.2,0.6-0.4,1.2-0.6,1.7l-0.2,0.7c0.2,0.3,0.4,0.5,0.8,0.7l1.2,0.8l0.9,0.6&#10;&#9;&#9;c0.5,0.3,0.8,0.8,0.8,1.4v0.9c0,0.5,0,1,0.1,1.5c0.1,1-0.4,2-1.2,2.5c-0.6,0.4-1.2,0.9-1.9,1.3c-0.3,0.2-0.3,0.3-0.2,0.6&#10;&#9;&#9;c0.5,1.3,0.9,2.2,1.4,3.1c0.3,0.6,0.3,0.6,1,0.5l0.8-0.2c0.5-0.1,1.1-0.2,1.6-0.4C221.2,134.5,221.4,134.5,221.6,134.5z&#10;&#9;&#9; M233.5,134.2L233.5,134.2c-4.7,0-8.4-3.8-8.4-8.5c0-2.3,0.9-4.4,2.5-6c1.6-1.6,3.7-2.5,5.9-2.5c4.7,0,8.5,3.7,8.6,8.4&#10;&#9;&#9;c0,0,0,0.1,0,0.1c0.1,2.2-0.8,4.3-2.3,5.8C238.1,133.2,235.9,134.2,233.5,134.2z M233.4,118.6c-1.8,0.1-3.6,0.8-4.9,2.1&#10;&#9;&#9;c-2.8,2.7-2.8,7.2,0,10c1.3,1.3,3.1,2.1,5,2.1l0,0c2,0,3.9-0.8,5.2-2.2c1.2-1.3,1.9-3,1.9-4.8l0,0c0-3.9-3.2-7.1-7.1-7.1&#10;&#9;&#9;C233.5,118.6,233.5,118.6,233.4,118.6L233.4,118.6z"/>
</g>
<g id="Ladder_artificial-intelligence-92">
	<line class="st4_artificial-intelligence-92" x1="66.2" y1="335.6" x2="122.9" y2="304.3"/>
	<path class="st0_artificial-intelligence-92" d="M66.2,336.4c-0.3,0-0.5-0.1-0.6-0.4c-0.2-0.3-0.1-0.8,0.3-0.9c0,0,0,0,0,0l56.8-31.4c0.3-0.2,0.8,0,0.9,0.3&#10;&#9;&#9;c0.1,0.3,0,0.7-0.3,0.9l-56.8,31.4C66.4,336.3,66.3,336.4,66.2,336.4z"/>
	<line class="st4_artificial-intelligence-92" x1="66.2" y1="304.3" x2="122.9" y2="335.6"/>
	<path class="st0_artificial-intelligence-92" d="M122.9,336.4c-0.1,0-0.2,0-0.3-0.1l-56.8-31.4c-0.3-0.2-0.4-0.6-0.2-1c0.2-0.3,0.6-0.4,0.9-0.3l56.8,31.3&#10;&#9;&#9;c0.3,0.2,0.5,0.6,0.3,0.9c0,0,0,0,0,0C123.4,336.2,123.2,336.3,122.9,336.4z"/>
	<line class="st4_artificial-intelligence-92" x1="66.2" y1="366.9" x2="122.9" y2="335.5"/>
	<path class="st0_artificial-intelligence-92" d="M66.2,367.6c-0.4,0-0.7-0.3-0.7-0.7c0-0.2,0.1-0.5,0.3-0.6l56.8-31.4c0.3-0.2,0.8-0.1,1,0.2s0.1,0.8-0.2,1&#10;&#9;&#9;c0,0-0.1,0-0.1,0l-56.8,31.4C66.4,367.6,66.3,367.6,66.2,367.6z"/>
	<line class="st4_artificial-intelligence-92" x1="66.2" y1="335.5" x2="122.9" y2="366.9"/>
	<path class="st0_artificial-intelligence-92" d="M122.9,367.6c-0.1,0-0.2,0-0.3-0.1l-56.8-31.4c-0.3-0.2-0.5-0.6-0.3-0.9s0.6-0.5,0.9-0.3c0,0,0.1,0,0.1,0&#10;&#9;&#9;l56.8,31.4c0.3,0.2,0.4,0.6,0.2,1C123.4,367.5,123.2,367.6,122.9,367.6z"/>
	<line class="st4_artificial-intelligence-92" x1="66.2" y1="398.2" x2="122.9" y2="366.8"/>
	<path class="st0_artificial-intelligence-92" d="M66.2,398.9c-0.3,0-0.5-0.1-0.6-0.4c-0.2-0.3-0.1-0.8,0.2-1c0,0,0,0,0,0l56.8-31.3c0.3-0.2,0.8-0.1,1,0.2&#10;&#9;&#9;c0,0,0,0,0,0.1c0.2,0.3,0.1,0.8-0.3,0.9c0,0,0,0,0,0l-56.8,31.4C66.4,398.8,66.3,398.9,66.2,398.9z"/>
	<line class="st4_artificial-intelligence-92" x1="66.2" y1="366.8" x2="122.9" y2="398.2"/>
	<path class="st0_artificial-intelligence-92" d="M122.9,398.9c-0.1,0-0.2,0-0.3-0.1l-56.8-31.4c-0.3-0.2-0.5-0.6-0.3-0.9c0,0,0,0,0,0c0.2-0.3,0.6-0.5,0.9-0.3&#10;&#9;&#9;c0,0,0,0,0.1,0l56.8,31.4c0.3,0.2,0.5,0.6,0.3,1c0,0,0,0,0,0C123.5,398.8,123.2,398.9,122.9,398.9z"/>
	<rect x="62.2" y="291.7" class="st2_artificial-intelligence-92" width="64.6" height="13.1"/>
	<path class="st0_artificial-intelligence-92" d="M126.9,305.5H62.2c-0.4,0-0.7-0.3-0.7-0.7l0,0v-13.1c0-0.4,0.3-0.7,0.7-0.7c0,0,0,0,0,0h64.6&#10;&#9;&#9;c0.4,0,0.7,0.3,0.7,0.7l0,0v13.1C127.6,305.2,127.3,305.5,126.9,305.5z M62.9,304.1h63.2v-11.7H62.9V304.1z"/>
</g>
<g id="Character_Male_artificial-intelligence-92">
	<path class="st2_artificial-intelligence-92" d="M365.2,388.7c-1.4,0-12.2,1.2-17.2,3.7s-6.1,2.7-5.1,6.1s9.9,4.2,16.6,2.9c4.4-0.9,8.6-2.4,12.5-4.5&#10;&#9;&#9;L365.2,388.7z"/>
	<path class="st1_artificial-intelligence-92" d="M353.3,402.5c-5.1,0-10.2-1.1-11-4c-1.1-3.6,0.3-4.3,4.3-6.3l1.1-0.6c5.2-2.6,16-3.8,17.5-3.7&#10;&#9;&#9;c0.2,0,0.4,0.1,0.5,0.2l6.8,8.2c0.1,0.1,0.2,0.3,0.1,0.5c0,0.2-0.2,0.3-0.3,0.4c-4,2.2-8.2,3.7-12.6,4.6&#10;&#9;&#9;C357.6,402.4,355.4,402.6,353.3,402.5z M364.9,389.3c-2.2,0.1-12,1.3-16.7,3.6l-1.1,0.6c-4.1,2-4.4,2.2-3.6,4.8s8.7,3.9,15.9,2.5&#10;&#9;&#9;c4-0.8,8-2.2,11.6-4.1L364.9,389.3z"/>
	<path class="st2_artificial-intelligence-92" d="M363.8,388.6c-2,0.5-3.2,2.4-2.9,4.4c0.5,3.6,8.1,3.7,8.5,3.8S363.8,388.6,363.8,388.6z"/>
	<path class="st1_artificial-intelligence-92" d="M369.4,397.4L369.4,397.4c-1.4,0-8.6-0.4-9.1-4.3c-0.4-2.3,1.1-4.6,3.4-5.1c0.2-0.1,0.5,0,0.7,0.2&#10;&#9;&#9;c6,8.1,5.9,8.4,5.7,8.8C369.8,397.3,369.6,397.4,369.4,397.4z M363.5,389.4c-1.5,0.5-2.3,2-2,3.6c0.3,2.1,4,2.9,6.8,3.1&#10;&#9;&#9;C367.3,394.6,365.2,391.6,363.5,389.4L363.5,389.4z"/>
	<path class="st2_artificial-intelligence-92" d="M420,396.9c0.2,0.1,2.3,2.8,11.3,3.9s12.3,3,14.3-1.7s0.6-7.8-3.8-9.1s-16.6-2.5-19-0.2S420,396.9,420,396.9z"/>
	<path class="st1_artificial-intelligence-92" d="M441.2,402.7c-1.6-0.1-3.3-0.3-4.9-0.6c-1.5-0.2-3.1-0.5-5.1-0.7c-3.8-0.5-8.8-1.5-11.5-3.9&#10;&#9;&#9;c-0.2-0.1-0.4-0.4-0.3-0.6c0-0.2,0.4-5.2,3-7.6s15.3-1.2,19.7,0.1c2,0.4,3.7,1.7,4.6,3.5c0.8,1.7,0.7,3.9-0.4,6.5&#10;&#9;&#9;S443.5,402.7,441.2,402.7z M420.7,396.6c2.4,2.1,7.1,3.1,10.7,3.5c2,0.2,3.6,0.5,5.1,0.8c5.6,0.9,7.2,1,8.6-2.1&#10;&#9;&#9;c1-2.2,1.1-4.1,0.5-5.5c-0.8-1.4-2.2-2.5-3.9-2.8c-4.5-1.4-16.3-2.3-18.4-0.4C421.4,391.9,420.8,395.5,420.7,396.6L420.7,396.6z"/>
	<path class="st2_artificial-intelligence-92" d="M417.1,394.9c0,0,4.1,3.4,6.8,3s6.5-1.9,5-4.8s-11.3-4.7-11.3-4.7L417.1,394.9z"/>
	<path class="st1_artificial-intelligence-92" d="M423.5,398.6c-2.9,0-6.6-3-6.8-3.2c-0.2-0.1-0.2-0.3-0.2-0.5l0.5-6.5c0-0.2,0.1-0.3,0.2-0.5&#10;&#9;&#9;c0.1-0.1,0.3-0.2,0.5-0.1c1,0.2,10.1,1.9,11.7,5c0.5,0.9,0.6,1.9,0.1,2.9c-1.1,2.1-4.5,2.8-5.5,2.9&#10;&#9;&#9;C423.9,398.6,423.7,398.6,423.5,398.6z M417.8,394.6c1.3,1,4.2,2.9,6,2.7s4-1,4.6-2.2c0.2-0.5,0.2-1.2-0.1-1.7&#10;&#9;&#9;c-1-2-7.1-3.6-10.1-4.2L417.8,394.6z"/>
	<path class="st1_artificial-intelligence-92" d="M368.1,366.3c0,0,4.3,16.8,20,20s23.8,2.4,29.4-8.2s1.9-17.1,1.9-17.1l-49.6-1L368.1,366.3z"/>
	<path class="st1_artificial-intelligence-92" d="M401.1,388.6c-4.4-0.1-8.8-0.7-13.1-1.6c-16-3.2-20.5-20.3-20.5-20.5c0-0.1,0-0.2,0-0.4l1.7-6.3&#10;&#9;&#9;c0.1-0.3,0.4-0.5,0.7-0.5l49.5,1c0.2,0,0.5,0.1,0.6,0.4c0.1,0.3,3.8,7-1.9,17.8C414.1,386,408.8,388.6,401.1,388.6z M368.8,366.3&#10;&#9;&#9;c0.5,1.8,5.2,16.4,19.4,19.3c15,3.1,23.1,2.7,28.6-7.9c4.6-8.8,2.7-14.6,2-16.1l-48.6-1L368.8,366.3z"/>
	<path class="st2_artificial-intelligence-92" d="M409.6,295.3c0,0,2.1-8.3,0.4-13c-1.1-3-3.5-4.1-6.4-4.4c-3.7-0.5-5.9-2.1-9.2-3.7c-1.8-0.9-3.8-1.3-5.8-1.2&#10;&#9;&#9;c-2,0.2-3.9,1.1-5.2,2.7c-1.4,1.9-1.9,4.3-1.4,6.6c0.7,3.9,2.6,7.4,6.8,7C394.4,288.5,403.9,297,409.6,295.3z"/>
	<path class="st1_artificial-intelligence-92" d="M407.9,296.2c-3,0-6.5-1.7-10-3.4c-3.2-1.6-6.6-3.2-8.9-3c-3.9,0.4-6.6-2.3-7.6-7.5c-0.5-2.5,0-5.1,1.6-7.1&#10;&#9;&#9;c1.4-1.7,3.4-2.7,5.6-2.9c2.1-0.2,4.3,0.3,6.1,1.3c0.7,0.4,1.4,0.7,2,1.1c2.1,1.3,4.5,2.2,7,2.6c3.6,0.4,5.9,2,6.9,4.9&#10;&#9;&#9;c1.8,4.9-0.3,13.1-0.4,13.4c-0.1,0.2-0.2,0.4-0.5,0.5C409.2,296.1,408.5,296.2,407.9,296.2z M409.6,295.2L409.6,295.2z&#10;&#9;&#9; M389.4,288.3c2.6,0,5.8,1.5,9.1,3.2c3.8,1.9,7.7,3.8,10.5,3.2c0.4-1.7,1.7-8.3,0.3-12.2c-0.8-2.3-2.7-3.6-5.8-4&#10;&#9;&#9;c-2.6-0.4-5.2-1.3-7.4-2.8c-0.6-0.4-1.3-0.7-2-1.1c-1.6-0.9-3.5-1.3-5.4-1.1c-1.8,0.2-3.5,1-4.7,2.4c-1.3,1.7-1.7,3.9-1.3,6&#10;&#9;&#9;c0.9,4.5,2.9,6.7,6.1,6.4C389,288.3,389.2,288.3,389.4,288.3L389.4,288.3z"/>
	<path class="st3_artificial-intelligence-92 targetColor" d="M423.1,366.5c0,0,8.1-26.2,7-42.7s-11.8-17.6-15.5-18s-23.4-3.3-30.8,5.4s-20.4,49.4-20.4,49.4L423.1,366.5z" style="fill: rgb(255, 255, 255);"/>
	<path class="st2_artificial-intelligence-92" d="M393.8,305.9l1.3,8.8c1.8,2.7,5.4,3.7,8.3,2.2c5.5-2.3,5.6-6.5,5.6-6.5l-2.6-16.2c0,0-5.1-2.1-7.5-12.1&#10;&#9;&#9;c0,0-12.7,0.7-11.9,5.5c0,0-0.3,8.9,0.9,13.3S393.7,305.8,393.8,305.9z"/>
	<path class="st1_artificial-intelligence-92" d="M400.4,318.2c-2.4-0.1-4.6-1.3-5.9-3.2c-0.1-0.1-0.1-0.2-0.1-0.3l-1.2-8.3c-2.8-0.6-5.1-2.7-6-5.4&#10;&#9;&#9;c-1.3-4.4-1-13.1-1-13.5c-0.1-0.9,0.1-1.7,0.7-2.4c2.6-3.2,11.5-3.7,11.9-3.7c0.3,0,0.7,0.2,0.7,0.5c2.3,9.5,7.1,11.6,7.1,11.6&#10;&#9;&#9;c0.2,0.1,0.4,0.3,0.4,0.5l2.6,16.2c0,0.3-0.2,4.9-6.1,7.3C402.6,318,401.5,318.2,400.4,318.2z M395.7,314.4&#10;&#9;&#9;c1.7,2.4,4.8,3.2,7.4,1.9c5-2.1,5.2-5.8,5.2-5.9l-2.6-15.7c-1.2-0.7-5.2-3.5-7.4-11.8c-2.8,0.2-8.6,1.1-10.3,3.2&#10;&#9;&#9;c-0.4,0.4-0.5,0.9-0.4,1.4c0,0.2-0.3,9,0.9,13.2c0.9,3.1,3.7,4.1,5.3,4.5c0.1,0,0.2,0.1,0.3,0.1c0.2,0.1,0.3,0.3,0.4,0.5&#10;&#9;&#9;L395.7,314.4z"/>
	<path class="st2_artificial-intelligence-92" d="M403,294.4c0.1-0.8,0.4-1.6,1-2.2c0.5-0.5,1.2-1,1.9-1.3c0.4-0.2,0.8-0.4,1.2-0.4c0.3,0,0.6,0,0.9,0.2&#10;&#9;&#9;c0.7,0.2,1.2,0.7,1.6,1.2c0.2,0.5,0.4,1.1,0.3,1.6c0,0.6,0,1.2-0.2,1.8c-0.3,1.2-1.1,2.2-2.1,2.9c-1.1,0.6-2.3,0.8-3.5,0.5"/>
	<path class="st1_artificial-intelligence-92" d="M405.1,299.5c-0.5,0-0.9-0.1-1.4-0.2c-0.4-0.1-0.6-0.5-0.5-0.9c0,0,0,0,0,0c0.1-0.4,0.5-0.6,0.8-0.5&#10;&#9;&#9;c0,0,0,0,0,0c2.1,0.6,4.2-0.7,4.8-2.8c0,0,0,0,0-0.1c0.1-0.5,0.2-1.1,0.1-1.6c0-0.4-0.1-0.9-0.2-1.3c-0.3-0.4-0.7-0.8-1.2-0.9&#10;&#9;&#9;c-0.2-0.1-0.4-0.1-0.6-0.1c-0.3,0.1-0.6,0.2-0.9,0.3c-0.6,0.3-1.2,0.7-1.7,1.2c-0.4,0.5-0.7,1.1-0.8,1.8c0,0.4-0.3,0.7-0.7,0.7&#10;&#9;&#9;s-0.7-0.3-0.7-0.7c0,0,0-0.1,0-0.1c0.1-1,0.5-1.9,1.1-2.6c0.6-0.6,1.3-1.1,2-1.5c0.4-0.3,1-0.4,1.5-0.5c0.4,0,0.8,0.1,1.1,0.2&#10;&#9;&#9;c0.8,0.3,1.5,0.8,2,1.5c0.3,0.6,0.5,1.3,0.4,2c0,0.7,0,1.3-0.2,2c-0.4,1.4-1.2,2.6-2.5,3.3C407,299.2,406.1,299.5,405.1,299.5z"/>
	<path class="st2_artificial-intelligence-92" d="M395,291.9c0,0-2.5,4.9-1.7,5.6s2.8-0.1,2.8-0.1"/>
	<path class="st1_artificial-intelligence-92" d="M394.4,298.5c-0.5,0-1.1-0.1-1.5-0.5c-0.3-0.3-1.2-1,1.5-6.4c0.2-0.3,0.6-0.5,0.9-0.3c0.3,0.2,0.5,0.6,0.3,0.9&#10;&#9;&#9;c-0.8,1.5-1.4,3.1-1.8,4.8c0.7,0.1,1.4,0,2-0.2c0.4-0.1,0.8,0,0.9,0.4s0,0.8-0.4,0.9C395.8,298.3,395.1,298.4,394.4,298.5z&#10;&#9;&#9; M393.9,297L393.9,297z"/>
	
		<ellipse transform="matrix(0.9967 -8.124270e-02 8.124270e-02 0.9967 -22.299 33.3661)" class="st1_artificial-intelligence-92" cx="398.9" cy="290.7" rx="0.8" ry="1.1"/>
	
		<ellipse transform="matrix(0.9972 -7.428255e-02 7.428255e-02 0.9972 -20.595 29.8531)" class="st1_artificial-intelligence-92" cx="391" cy="291.8" rx="0.8" ry="1.1"/>
	<path class="st1_artificial-intelligence-92" d="M395.7,302.4c-1.5,0-3-0.4-4.4-1c-0.3-0.2-0.5-0.6-0.3-0.9c0,0,0,0,0,0c0.2-0.4,0.6-0.5,0.9-0.4&#10;&#9;&#9;c0,0,3.6,1.6,6.1,0.3c1.3-0.8,2.2-2.2,2.3-3.8c0.1-0.4,0.4-0.6,0.8-0.6s0.6,0.4,0.6,0.8c-0.2,2-1.3,3.8-3.1,4.8&#10;&#9;&#9;C397.7,302.1,396.7,302.4,395.7,302.4z"/>
	<path class="st1_artificial-intelligence-92" d="M393.8,305.9c0,0,5.6,0.5,8.6-1.8c0,0-2.5,7.9-7.7,7.9L393.8,305.9z"/>
	<path class="st1_artificial-intelligence-92" d="M394.7,312.6c-0.3,0-0.6-0.2-0.7-0.6l-0.9-6c0-0.2,0-0.4,0.2-0.6c0.2-0.1,0.4-0.2,0.6-0.2c0,0,5.4,0.4,8.1-1.7&#10;&#9;&#9;c0.2-0.2,0.6-0.2,0.8,0c0.3,0.2,0.4,0.5,0.3,0.8C403,304.6,400.4,312.6,394.7,312.6z M394.6,306.6l0.7,4.5c2.9-0.4,4.8-3.5,5.7-5.5&#10;&#9;&#9;C399,306.3,396.8,306.7,394.6,306.6L394.6,306.6z"/>
	<path class="st3_artificial-intelligence-92 targetColor" d="M425.1,310c4.5,0.9,21.9,43.5,15.6,48.2c-9.9,7.3-43.8-1-43.8-1l3-13c0,0,21.8,1,22.2-3.4&#10;&#9;&#9;s-12.2-25.4-10.4-28.5S425.1,310,425.1,310z" style="fill: rgb(255, 255, 255);"/>
	<path class="st2_artificial-intelligence-92" d="M402.2,348.7c-3.6,0.1-7.3-0.1-10.9-0.7c-2.6-0.7-5.4-1.1-8.1-1.1c-3.6,0.1-7.2,0.8-10.5,2.1&#10;&#9;&#9;c-0.1,0-0.3,0.1-0.4,0.2c-0.3,0.5,0.4,0.9,1,0.9c1.4,0.1,2.9-0.1,4.3-0.5c-3.5,1.2-6.7,2.9-9.8,5c-0.3,0.2-0.7,0.6-0.6,1&#10;&#9;&#9;s0.9,0.3,1.3,0.1l7.9-3.4c-2,0.8-3.9,1.9-5.6,3.3c-0.2,0.2-0.5,0.5-0.4,0.8c0.1,0.5,0.9,0.5,1.4,0.2c2.4-1.1,4.7-2.5,6.9-4&#10;&#9;&#9;l-4.9,3.6c-0.1,0.4,0.3,0.7,0.7,0.8c0.4,0,0.8-0.1,1.1-0.4l5.4-3l-3.4,2.3c-0.5,0.4-1.1,0.9-0.9,1.5s1.3,0.5,2,0.2&#10;&#9;&#9;c2.8-1.1,5.7-2,8.7-2.5c1-0.3,2.1-0.5,3.2-0.6c1.7,0.2,3.3,0.6,4.9,1.2c2.4,0.6,4.8,1.2,7.3,1.8"/>
	<path class="st1_artificial-intelligence-92" d="M377.6,358.6c-0.2,0-0.5,0-0.7-0.1c-0.3-0.1-0.6-0.4-0.8-0.8c-0.1-0.2-0.1-0.4-0.1-0.6l-0.1,0.1&#10;&#9;&#9;c-0.4,0.3-0.9,0.5-1.5,0.5c-0.4,0-0.8-0.2-1.1-0.5c-0.1-0.1-0.2-0.3-0.2-0.4c-0.4,0.2-0.7,0.4-1.1,0.5c-0.5,0.3-1.1,0.3-1.7,0.1&#10;&#9;&#9;c-0.3-0.1-0.5-0.4-0.6-0.8c-0.1-0.2-0.1-0.4,0-0.6l-1,0.4c-0.5,0.2-1,0.3-1.5,0.1c-0.3-0.1-0.5-0.3-0.6-0.6c-0.1-0.3-0.3-1,0.8-1.8&#10;&#9;&#9;c1.8-1.3,3.8-2.4,5.8-3.3c-0.6,0-1.2-0.4-1.5-0.9c-0.1-0.3-0.1-0.7,0.1-1c0.2-0.2,0.4-0.4,0.6-0.5c3.4-1.4,7.1-2.1,10.7-2.2&#10;&#9;&#9;c2.4,0,4.9,0.3,7.3,0.9l1,0.2c3.5,0.6,7.1,0.9,10.7,0.7l0,0c0.3,0,0.6,0.3,0.6,0.6c0,0.4-0.3,0.6-0.6,0.6c-3.7,0.1-7.4-0.1-11-0.8&#10;&#9;&#9;l-1-0.2c-2.3-0.6-4.6-0.9-7-0.9c-3.4,0.1-6.8,0.8-10,2h0.1c1.4,0.1,2.8-0.1,4.1-0.4c0.3-0.1,0.7,0.1,0.8,0.4&#10;&#9;&#9;c0.1,0.3-0.1,0.7-0.4,0.8c0,0,0,0,0,0c-3.4,1.2-6.6,2.8-9.6,4.9l-0.1,0.1l0.3-0.1l6.1-2.6c0.6-0.3,1.2-0.5,1.8-0.8&#10;&#9;&#9;c0.3-0.1,0.7,0,0.8,0.4c0.1,0.3,0,0.7-0.4,0.8l-1.8,0.8c-1.3,0.7-2.6,1.5-3.7,2.4l0,0l0.3-0.1c2.4-1.1,4.6-2.5,6.8-4&#10;&#9;&#9;c0.3-0.2,0.7-0.1,0.9,0.1c0.2,0.3,0.1,0.7-0.1,0.9l-4.3,3.2c0.2-0.1,0.4-0.2,0.6-0.3l5.5-3c0.3-0.2,0.7-0.1,0.9,0.2&#10;&#9;&#9;c0.2,0.3,0.1,0.7-0.2,0.9l-3.4,2.3c-0.5,0.4-0.7,0.7-0.7,0.8c0.4,0.1,0.8,0.1,1.2-0.1c2.8-1.2,5.8-2,8.8-2.5c0.4-0.1,0.7-0.2,1-0.2&#10;&#9;&#9;c0.8-0.2,1.5-0.4,2.3-0.4c1.2,0.1,2.4,0.4,3.5,0.8c0.5,0.1,1,0.3,1.5,0.4c2.4,0.6,4.9,1.2,7.3,1.8c0.3,0.1,0.5,0.4,0.5,0.8&#10;&#9;&#9;s-0.4,0.5-0.8,0.5l0,0c-2.4-0.6-4.8-1.2-7.3-1.8c-0.5-0.1-1-0.3-1.5-0.4c-1-0.4-2.1-0.6-3.2-0.7c-0.7,0-1.3,0.1-2,0.3&#10;&#9;&#9;c-0.4,0.1-0.7,0.2-1.1,0.3c-2.9,0.5-5.8,1.3-8.5,2.4C378.6,358.4,378.1,358.5,377.6,358.6z"/>
	<path class="st2_artificial-intelligence-92" d="M386.1,314.9c-1.2,1.2-4.6,20.4-5.9,29.4"/>
	<path class="st1_artificial-intelligence-92" d="M380.2,345L380.2,345c-0.4-0.1-0.7-0.4-0.6-0.7c0,0,0,0,0,0c0.8-5.6,4.5-28.2,6.1-29.8c0.3-0.2,0.7-0.2,0.9,0&#10;&#9;&#9;c0.2,0.2,0.2,0.7,0,0.9c-1,1.3-4.3,19-5.8,29C380.8,344.8,380.5,345,380.2,345z"/>
	<path class="st1_artificial-intelligence-92" d="M413.4,362.3h-0.1l-10.6-2c-0.3-0.1-0.6-0.3-0.6-0.7l-0.1-12.8c0-0.4,0.3-0.7,0.6-0.7l18.9-1.6l-7.8-28.9&#10;&#9;&#9;c-0.1-0.4,0.2-0.7,0.5-0.8c0.3-0.1,0.7,0.1,0.8,0.5l8,29.7c0.1,0.4-0.1,0.8-0.5,0.9c0,0-0.1,0-0.1,0l-19.1,1.6l0.1,11.5l10,1.9&#10;&#9;&#9;c0.4,0.1,0.6,0.5,0.5,0.8C414,362,413.7,362.2,413.4,362.3L413.4,362.3z"/>
	<polygon class="st2_artificial-intelligence-92" points="354.5,365.4 345.3,340.7 382.9,341.5 391.3,369.6 &#9;"/>
	<path class="st1_artificial-intelligence-92" d="M391.3,370.3L391.3,370.3l-36.9-4.2c-0.3,0-0.5-0.2-0.6-0.5l-9.2-24.6c-0.1-0.2,0-0.5,0.1-0.6&#10;&#9;&#9;c0.1-0.2,0.4-0.3,0.6-0.3l37.6,0.7c0.3,0,0.6,0.2,0.7,0.5l8.4,28.1c0.1,0.4-0.1,0.8-0.4,0.9C391.5,370.3,391.4,370.3,391.3,370.3&#10;&#9;&#9;L391.3,370.3z M355,364.7l35.3,4l-8-26.6l-36-0.7L355,364.7z"/>
	<path class="st1_artificial-intelligence-92" d="M356.5,365.6c0,0-10.2,8.3-6.6,15.9s68.7,16.3,68.7,16.3l2.9-9.9C421.6,387.8,370.5,361.7,356.5,365.6z"/>
	<path class="st1_artificial-intelligence-92" d="M418.7,398.5h-0.1c-0.2,0-16.5-2.2-33-5.3c-33.8-6.3-35.6-10.1-36.2-11.4c-3.8-8,6.4-16.4,6.8-16.7&#10;&#9;&#9;c0.1-0.1,0.2-0.1,0.3-0.1c14-3.9,63.5,21.2,65.6,22.3c0.3,0.2,0.4,0.5,0.4,0.8l-3,10C419.2,398.3,419,398.5,418.7,398.5z&#10;&#9;&#9; M356.9,366.2c-1.1,0.9-9.4,8.3-6.3,14.9c2.5,5.3,41.5,12.3,67.6,15.8l2.6-8.8C415.4,385.5,369.9,362.9,356.9,366.2L356.9,366.2z"/>
	<path class="st1_artificial-intelligence-92" d="M425,361.8c0,0-50.6,20.5-63.2,25.9l7.3,11.3c0,0,46.7-0.9,60.1-12.7S441.8,355,425,361.8z"/>
	<path class="st1_artificial-intelligence-92" d="M369.1,399.6c-0.2,0-0.5-0.1-0.6-0.3l-7.3-11.3c-0.1-0.2-0.1-0.4-0.1-0.6c0.1-0.2,0.2-0.4,0.4-0.4&#10;&#9;&#9;c12.4-5.3,62.7-25.7,63.2-25.9c6.1-2.5,10.9-1.7,13.1,2c3.2,5.2,0.7,16-8.1,23.7C416.3,398.6,371.1,399.6,369.1,399.6L369.1,399.6z&#10;&#9;&#9; M362.9,388l6.6,10.3c4.5-0.1,46.9-1.6,59.3-12.5c8.3-7.3,10.8-17.2,7.9-21.9c-1.9-3.1-6-3.6-11.4-1.4l0,0&#10;&#9;&#9;C424.8,362.6,376.4,382.2,362.9,388z M425,361.8L425,361.8z"/>
	<path class="st2_artificial-intelligence-92" d="M354.4,355.5c0,0.3-0.2,0.6-0.4,0.8l-1,1.5c0.1-0.6,0.7-0.9,1.3-0.8c0.1,0,0.1,0,0.2,0.1&#10;&#9;&#9;c0.6,0.3,0.9,0.9,0.9,1.6c0,0.6-0.2,1.3-0.4,1.8c-0.7,1.8-2.3,4.5-4.6,3.1c-1.6-0.9-2-4.2-2.2-5.9c-0.4-3.2,0.6-7.4,4.7-6.8&#10;&#9;&#9;c-0.1,1.6-0.7,3.1-1.7,4.4C351.8,354.6,354.5,353.6,354.4,355.5z"/>
	<path class="st1_artificial-intelligence-92" d="M351.6,364.6c-0.6,0-1.1-0.2-1.6-0.5c-1.8-1.1-2.3-4.5-2.5-6.3c-0.3-2.1,0-4.9,1.5-6.5c1-1,2.5-1.4,3.9-1.1&#10;&#9;&#9;c0.3,0.1,0.6,0.3,0.5,0.7c-0.1,1-0.3,2-0.7,2.9c0.5-0.1,1-0.1,1.4,0.1c0.6,0.3,0.9,1,0.8,1.6c0,0.3-0.1,0.6-0.3,0.9h0&#10;&#9;&#9;c0.8,0.4,1.3,1.2,1.3,2.1c0,0.7-0.2,1.4-0.5,2.1c-0.5,1.1-1.4,3.2-3.1,3.7C352.2,364.5,351.9,364.6,351.6,364.6z M352.1,351.5&#10;&#9;&#9;c-0.8,0-1.5,0.3-2.1,0.8c-1.2,1.2-1.4,3.5-1.2,5.3c0.2,1.4,0.6,4.6,1.9,5.4c0.4,0.3,0.9,0.4,1.4,0.2c0.8-0.3,1.7-1.4,2.3-3&#10;&#9;&#9;c0.2-0.5,0.4-1,0.4-1.6c0-0.4-0.2-0.8-0.5-1c-0.1,0-0.2,0-0.3,0l-0.3,0.5c-0.2,0.2-0.5,0.3-0.8,0.2c-0.3-0.1-0.5-0.4-0.4-0.7&#10;&#9;&#9;c0.1-0.4,0.3-0.8,0.6-1l0.5-0.7c0.1-0.2,0.2-0.3,0.3-0.5l0,0c0-0.1,0-0.3-0.1-0.4c-0.7,0-1.4,0.2-2,0.6c-0.2,0.2-0.6,0.2-0.9,0&#10;&#9;&#9;c-0.3-0.2-0.3-0.6-0.1-0.9c0.8-1,1.3-2.1,1.5-3.4L352.1,351.5z"/>
	<path class="st2_artificial-intelligence-92" d="M368.5,385.7c-0.4,0-0.7-0.3-0.7-0.7c0-0.3,0.2-0.6,0.5-0.7c0.3-0.1,27.1-10.5,32.9-14c0.3-0.2,0.8-0.1,1,0.2&#10;&#9;&#9;c0.2,0.3,0.1,0.8-0.2,1c-5.9,3.6-32,13.7-33.1,14.2C368.7,385.7,368.6,385.7,368.5,385.7z"/>
</g>
<g id="Background_Poster_artificial-intelligence-92">
	<rect x="356.8" y="126.9" class="st2_artificial-intelligence-92" width="85" height="88"/>
	<path class="st0_artificial-intelligence-92" d="M441.8,215.6h-85c-0.4,0-0.7-0.3-0.7-0.7v-88c0-0.4,0.3-0.7,0.7-0.7h85c0.4,0,0.7,0.3,0.7,0.7v0v88&#10;&#9;&#9;C442.5,215.3,442.2,215.6,441.8,215.6L441.8,215.6z M357.5,214.2h83.6v-86.6h-83.6V214.2z"/>
	<path class="st0_artificial-intelligence-92" d="M373.3,153.5c-2.7,0-4.9-2.2-4.9-4.9s2.2-4.9,4.9-4.9c2.7,0,4.9,2.2,4.9,4.9c0,0,0,0,0,0&#10;&#9;&#9;C378.2,151.4,376,153.5,373.3,153.5z M373.3,145.2c-1.9,0-3.5,1.5-3.5,3.5s1.5,3.5,3.5,3.5s3.5-1.5,3.5-3.5c0,0,0,0,0,0&#10;&#9;&#9;C376.8,146.8,375.2,145.2,373.3,145.2L373.3,145.2z"/>
	<path class="st0_artificial-intelligence-92" d="M390.5,142.5c-2.7,0-4.9-2.2-4.9-4.9s2.2-4.9,4.9-4.9c2.7,0,4.9,2.2,4.9,4.9c0,0,0,0,0,0&#10;&#9;&#9;C395.3,140.3,393.1,142.5,390.5,142.5z M390.5,134.2c-1.9,0-3.5,1.5-3.5,3.5c0,1.9,1.5,3.5,3.5,3.5s3.5-1.5,3.5-3.5c0,0,0,0,0,0&#10;&#9;&#9;C393.9,135.7,392.4,134.2,390.5,134.2z"/>
	<path class="st0_artificial-intelligence-92" d="M426,207.9c-2.7,0-4.9-2.2-4.9-4.9s2.2-4.9,4.9-4.9c2.7,0,4.9,2.2,4.9,4.9c0,0,0,0,0,0&#10;&#9;&#9;C430.9,205.8,428.7,207.9,426,207.9z M426,199.6c-1.9,0-3.5,1.5-3.5,3.5c0,1.9,1.5,3.5,3.5,3.5s3.5-1.5,3.5-3.5c0,0,0,0,0,0&#10;&#9;&#9;C429.5,201.2,427.9,199.6,426,199.6L426,199.6z"/>
	<path class="st0_artificial-intelligence-92" d="M426,153.5c-2.7,0-4.9-2.2-4.9-4.9s2.2-4.9,4.9-4.9c2.7,0,4.9,2.2,4.9,4.9c0,0,0,0,0,0&#10;&#9;&#9;C430.9,151.4,428.7,153.5,426,153.5z M426,145.2c-1.9,0-3.5,1.5-3.5,3.5s1.5,3.5,3.5,3.5s3.5-1.5,3.5-3.5c0,0,0,0,0,0&#10;&#9;&#9;C429.5,146.8,427.9,145.2,426,145.2L426,145.2z"/>
	<path class="st0_artificial-intelligence-92" d="M382,194.9c-2.7,0-4.9-2.2-4.9-4.9s2.2-4.9,4.9-4.9c2.7,0,4.9,2.2,4.9,4.9c0,0,0,0,0,0&#10;&#9;&#9;C386.9,192.7,384.7,194.9,382,194.9z M382,186.6c-1.9,0-3.5,1.6-3.5,3.5c0,1.9,1.6,3.5,3.5,3.5c1.9,0,3.5-1.6,3.5-3.5c0,0,0,0,0,0&#10;&#9;&#9;C385.5,188.1,383.9,186.6,382,186.6C382,186.6,382,186.6,382,186.6z"/>
	<path class="st0_artificial-intelligence-92" d="M402,196.4c-2.7,0-4.9-2.2-4.9-4.9s2.2-4.9,4.9-4.9c2.7,0,4.9,2.2,4.9,4.9c0,0,0,0,0,0&#10;&#9;&#9;C406.9,194.3,404.7,196.4,402,196.4z M402,188.1c-1.9,0-3.5,1.5-3.5,3.5c0,1.9,1.5,3.5,3.5,3.5s3.5-1.5,3.5-3.5c0,0,0,0,0,0&#10;&#9;&#9;C405.5,189.7,403.9,188.1,402,188.1z"/>
	<path class="st0_artificial-intelligence-92" d="M426,199.6c-0.4,0-0.7-0.3-0.7-0.7c0,0,0,0,0,0v-26.1h-52c-0.4,0-0.7-0.3-0.7-0.7c0,0,0,0,0,0v-19.2&#10;&#9;&#9;c0-0.4,0.3-0.7,0.7-0.7c0.4,0,0.7,0.3,0.7,0.7c0,0,0,0,0,0v18.6h52c0.4,0,0.7,0.3,0.7,0.7c0,0,0,0,0,0v26.8&#10;&#9;&#9;C426.7,199.3,426.4,199.6,426,199.6z"/>
	<path class="st0_artificial-intelligence-92" d="M381.9,186.6L381.9,186.6c-0.4,0-0.7-0.3-0.7-0.7c0.1-4.8,0.2-12.5,0-13.5c0-0.1,0-0.2,0-0.2&#10;&#9;&#9;c0-0.4,0.4-0.7,0.8-0.7c0.2,0,0.3,0.1,0.4,0.2c0.3,0.3,0.4,0.4,0.2,14.3C382.6,186.3,382.3,186.6,381.9,186.6&#10;&#9;&#9;C381.9,186.6,381.9,186.6,381.9,186.6z"/>
	<path class="st0_artificial-intelligence-92" d="M402,188.1c-0.4,0-0.7-0.3-0.7-0.7c0,0,0,0,0,0v-38.8c0-0.4,0.3-0.7,0.7-0.7l0,0h19.8c0.4,0,0.7,0.3,0.7,0.7&#10;&#9;&#9;s-0.3,0.7-0.7,0.7c0,0,0,0,0,0h-19.2v38C402.7,187.8,402.4,188.1,402,188.1C402,188.1,402,188.1,402,188.1z"/>
	<path class="st0_artificial-intelligence-92" d="M402,159.9h-11.5c-0.4,0-0.7-0.3-0.7-0.7c0,0,0,0,0,0v-17.4c0-0.4,0.3-0.7,0.7-0.7c0.4,0,0.7,0.3,0.7,0.7v16.7&#10;&#9;&#9;H402c0.4,0,0.7,0.3,0.7,0.7C402.7,159.6,402.4,159.9,402,159.9z"/>
	<path class="st0_artificial-intelligence-92" d="M392.9,203.8h-22.5c-0.4,0-0.7-0.3-0.7-0.7s0.3-0.7,0.7-0.7c0,0,0,0,0,0h22.5c0.4,0,0.7,0.3,0.7,0.7&#10;&#9;&#9;C393.6,203.5,393.3,203.8,392.9,203.8z"/>
	<path class="st0_artificial-intelligence-92" d="M387.3,207.9h-16.9c-0.4,0-0.7-0.3-0.7-0.7s0.3-0.7,0.7-0.7c0,0,0,0,0,0h16.9c0.4,0,0.7,0.3,0.7,0.7&#10;&#9;&#9;C388,207.6,387.6,207.9,387.3,207.9z"/>
</g>
<g id="Character_Female_artificial-intelligence-92">
	<path class="st2_artificial-intelligence-92" d="M92.7,102.2c0,0-4.6-3.5-9.7,1.5c-5.6,5.4-7,17.1-11.8,23.9c-6.1,8.6-14.5,15.8-18.2,25.9&#10;&#9;&#9;c-1.9,5.5-2.5,11.3-1.9,17c0.5,6,2,12,5.4,16.9s8.9,8.6,14.9,8.9c8.8,0.3,16.3-6.6,20.3-14.5c4.1-8.1,5.3-16.8,10.5-24.2&#10;&#9;&#9;c5.5-7.7,8.2-15.6,9.4-25.1c2-15-4.2-31.3-9.9-33.8S92.7,102.2,92.7,102.2z"/>
	<path class="st1_artificial-intelligence-92" d="M72.1,196.9h-0.6c-5.9-0.2-11.7-3.6-15.5-9.2c-3.1-4.5-5-10.3-5.5-17.3c-0.6-5.8,0.1-11.7,2-17.3&#10;&#9;&#9;c2.5-6.9,7.2-12.5,11.8-17.9c2.2-2.6,4.5-5.4,6.5-8.2s3.5-6.9,4.9-10.8c1.8-4.9,3.7-10.1,6.9-13.2c4.3-4.2,8.4-2.7,9.9-1.9&#10;&#9;&#9;c1.1-1.6,4.6-5.5,9.6-3.2c6.2,2.8,12.2,19.5,10.3,34.5c-1.3,10.2-4.3,18-9.5,25.4c-3,4.2-4.6,8.9-6.3,13.8c-1.1,3.5-2.5,7-4.1,10.3&#10;&#9;&#9;C88.8,189,81.4,196.9,72.1,196.9z M88.8,101.7c-2,0.1-3.9,1-5.3,2.4c-3,2.9-4.8,7.9-6.6,12.7c-1.4,4-3,8-5.1,11.1&#10;&#9;&#9;c-2,2.9-4.3,5.6-6.6,8.3c-4.5,5.3-9.1,10.8-11.5,17.5c-1.8,5.4-2.5,11-1.9,16.7c0.5,6.7,2.3,12.3,5.3,16.6&#10;&#9;&#9;c3.6,5.2,8.9,8.4,14.4,8.6c9.1,0.4,16.2-7.4,19.7-14.1c1.6-3.3,2.9-6.7,4.1-10.2c1.7-4.8,3.3-9.7,6.5-14.1c5.1-7.2,8-14.9,9.3-24.8&#10;&#9;&#9;c2-15.1-4.3-30.8-9.5-33.1s-8.1,3-8.2,3.2c-0.1,0.2-0.3,0.3-0.5,0.3c-0.2,0-0.4,0-0.6-0.1C91.2,102,90,101.7,88.8,101.7z"/>
	<path class="st2_artificial-intelligence-92" d="M101.2,151.6c0,0,7.8,15.6,14.5,14.4s19.4-18.1,19.4-18.1l-4-7.8c0,0-11,16.7-15.3,15.3s-11.3-15.3-11.3-15.3&#10;&#9;&#9;L101.2,151.6z"/>
	<path class="st1_artificial-intelligence-92" d="M114.9,166.7c-6.8,0-14.1-14.2-14.4-14.8c-0.1-0.2-0.1-0.3,0-0.5l3.2-11.5c0.1-0.4,0.5-0.6,0.9-0.5&#10;&#9;&#9;c0.2,0.1,0.3,0.2,0.4,0.4c1.9,3.8,7.5,14,10.9,15c2.8,0.8,10.4-8.8,14.5-15.1c0.1-0.2,0.4-0.3,0.6-0.3c0.2,0,0.5,0.2,0.6,0.4l4,7.8&#10;&#9;&#9;c0.1,0.2,0.1,0.5-0.1,0.8c-0.5,0.7-13,17.1-19.8,18.3C115.5,166.7,115.2,166.7,114.9,166.7z M101.9,151.5&#10;&#9;&#9;c2.2,4.4,8.7,14.6,13.6,13.8c5.8-1.1,16.8-15.1,18.7-17.5l-3.3-6.4c-2.9,4.2-11.2,15.9-15.5,14.6c-3.8-1.1-8.9-10.2-10.9-14.1&#10;&#9;&#9;L101.9,151.5z"/>
	<path class="st2_artificial-intelligence-92" d="M93.3,264.7l-7.1,17.5c0,0,22.1,3.4,22.2,1.1s-3.2-5.2-3.2-5.2s-7.3-1.3-6.5-2.8s3.5-7.4,3.5-7.4L93.3,264.7z"/>
	<path class="st1_artificial-intelligence-92" d="M104.6,284.8c-5.6,0-14.9-1.4-18.5-1.9c-0.2,0-0.4-0.2-0.5-0.4c-0.1-0.2-0.1-0.4,0-0.6l7.1-17.5&#10;&#9;&#9;c0.1-0.3,0.5-0.5,0.9-0.4l8.9,3.2c0.2,0.1,0.3,0.2,0.4,0.4c0.1,0.2,0.1,0.4,0,0.6c-0.1,0.2-2.7,5.7-3.5,7.3&#10;&#9;&#9;c0.5,0.5,3.2,1.4,5.9,1.9c0.1,0,0.2,0.1,0.3,0.2c0.4,0.3,3.6,3.2,3.5,5.8c0,0.3-0.2,0.6-0.4,0.8&#10;&#9;&#9;C108.1,284.6,106.6,284.8,104.6,284.8z M87.2,281.7c9.2,1.4,19,2.2,20.5,1.5c-0.1-1.5-2-3.6-2.9-4.4c-2-0.4-6.1-1.3-6.8-2.7&#10;&#9;&#9;c-0.2-0.3-0.2-0.7,0-1.1c0.6-1.1,2.4-5.1,3.2-6.7l-7.5-2.8L87.2,281.7z"/>
	<path class="st1_artificial-intelligence-92" d="M84.6,286.6l1.7-6c0,0,11.6,3.1,13,2.1s3.6-5.8,3.6-5.8s16.7,9.1,16.2,11s-13.6,1.1-17.8,1.7&#10;&#9;&#9;S84.6,286.6,84.6,286.6z"/>
	<path class="st1_artificial-intelligence-92" d="M100.1,290.3c-5,0-15.2-2.9-15.7-3c-0.4-0.1-0.6-0.5-0.5-0.9l1.7-6c0.1-0.4,0.5-0.6,0.8-0.5c0,0,0,0,0,0&#10;&#9;&#9;c5.3,1.4,11.6,2.6,12.5,2.2c0.9-0.6,2.5-3.7,3.3-5.5c0.1-0.4,0.5-0.5,0.9-0.4c0,0,0.1,0,0.1,0.1c11.4,6.2,17,10.1,16.5,11.8&#10;&#9;&#9;s-3.9,1.8-11.8,1.9c-2.7,0-5.2,0.1-6.6,0.3C100.9,290.3,100.5,290.3,100.1,290.3z M85.4,286.1c2.6,0.7,12.2,3.2,15.7,2.7&#10;&#9;&#9;c2.3-0.2,4.5-0.3,6.8-0.3c3.5-0.1,9.3-0.2,10.4-0.9c-0.8-1.4-8.2-6-15.1-9.8c-0.7,1.4-2.2,4.6-3.5,5.4c-1.5,1-9.1-0.8-12.9-1.8&#10;&#9;&#9;L85.4,286.1z"/>
	<path class="st2_artificial-intelligence-92" d="M79.6,271l0.6,12.7c0,0,8.8,2.7,11.8,2c1.9-0.6,3.6-1.8,4.7-3.5c0,0-5.9-1.1-6-3.4s0.1-8.4,0.1-8.4L79.6,271z"/>
	<path class="st1_artificial-intelligence-92" d="M90.6,286.5c-3.6,0-9.9-1.9-10.7-2.1c-0.3-0.1-0.5-0.3-0.5-0.6l-0.6-12.7c0-0.4,0.3-0.7,0.7-0.7l11.1-0.6&#10;&#9;&#9;c0.2,0,0.4,0.1,0.5,0.2c0.1,0.1,0.2,0.3,0.2,0.5c0,0.1-0.3,6-0.1,8.3c0.1,1.2,3.3,2.4,5.4,2.8c0.4,0.1,0.6,0.4,0.6,0.8&#10;&#9;&#9;c0,0.1-0.1,0.2-0.1,0.3c-1.2,1.8-3,3.1-5.1,3.8C91.6,286.5,91.1,286.6,90.6,286.5z M80.8,283.2c2.7,0.8,8.8,2.3,10.9,1.8&#10;&#9;&#9;c1.4-0.4,2.7-1.2,3.6-2.4c-1.9-0.5-5.3-1.6-5.5-3.8c-0.1-1.9,0-6,0.1-7.7l-9.7,0.5L80.8,283.2z"/>
	<path class="st1_artificial-intelligence-92" d="M123.9,233.3c-0.8-8.5-18-60.1-18-60.1l-31.4,3.5l2.7,94.8c4.3,2.7,9.7,2.9,14.3,0.6l0.2-4.1l9.4,4.4&#10;&#9;&#9;C101.1,272.4,124.7,241.8,123.9,233.3z M95.4,211.6c0,0,8.3,22.5,7.4,25.7c-0.6,2.4-7.4,17.8-10.9,25.5L95.4,211.6z"/>
	<path class="st1_artificial-intelligence-92" d="M85,274.5c-2.9,0-5.7-0.8-8.2-2.4c-0.2-0.1-0.3-0.3-0.3-0.5l-2.7-94.8c0-0.4,0.3-0.7,0.6-0.7l31.4-3.5&#10;&#9;&#9;c0.3,0,0.6,0.2,0.8,0.5c0.7,2.1,17.2,51.7,18,60.2l0,0c0.8,8.7-22,38.4-23,39.6c-0.2,0.3-0.6,0.3-0.8,0.2l-8.4-4l-0.1,3&#10;&#9;&#9;c0,0.3-0.2,0.5-0.4,0.6C89.8,273.8,87.4,274.4,85,274.5z M78,271.1c3.9,2.3,8.8,2.6,12.9,0.6L91,268c0-0.2,0.1-0.4,0.3-0.6&#10;&#9;&#9;c0.2-0.1,0.5-0.1,0.7,0l8.9,4.2c2.9-3.8,23.1-30.6,22.4-38.2l0,0c-0.7-7.9-15.9-53.9-17.7-59.4l-30.2,3.4L78,271.1z M91.9,263.5&#10;&#9;&#9;h-0.2c-0.3-0.1-0.6-0.4-0.5-0.7l3.5-51.2c0-0.3,0.3-0.6,0.6-0.6c0.3,0,0.6,0.1,0.8,0.4c0.8,2.3,8.3,22.8,7.5,26.1&#10;&#9;&#9;c-0.6,2.4-7.1,17.1-11,25.6C92.4,263.4,92.2,263.5,91.9,263.5L91.9,263.5z M95.8,215l-3,43.9c5.5-12.4,8.9-20.3,9.3-21.8&#10;&#9;&#9;C102.6,235.2,98.9,223.6,95.8,215z"/>
	<path class="st1_artificial-intelligence-92" d="M78.4,289.9l0.6-9c0,0,11,3.7,12.8,2.1c1.5-1.4,2.8-3.1,3.8-4.9c0,0,13.8,9,14.2,10.2s-0.5,1.9-1.9,1.9&#10;&#9;&#9;S78.4,289.9,78.4,289.9z"/>
	<path class="st1_artificial-intelligence-92" d="M108,291c-1.5,0-28.4-0.4-29.6-0.4c-0.2,0-0.4-0.1-0.5-0.2c-0.1-0.1-0.2-0.3-0.2-0.5l0.6-9&#10;&#9;&#9;c0-0.2,0.1-0.4,0.3-0.5c0.2-0.1,0.4-0.1,0.6-0.1c5.1,1.7,11.2,3.1,12.2,2.3c1.4-1.4,2.7-3,3.7-4.7c0.1-0.2,0.3-0.3,0.4-0.3&#10;&#9;&#9;c0.2,0,0.4,0,0.6,0.1c5.2,3.4,14.1,9.3,14.5,10.5c0.2,0.6,0.2,1.3-0.2,1.9C109.8,290.7,108.9,291.1,108,291z M79.2,289.2&#10;&#9;&#9;c4.4,0.1,27.5,0.4,28.8,0.4c0.5,0.1,0.9-0.1,1.3-0.4c0,0,0.1-0.2,0-0.6c-0.5-0.8-7.9-5.9-13.3-9.4c-1,1.7-2.2,3.2-3.6,4.5&#10;&#9;&#9;c-1.9,1.5-9.3-0.7-12.7-1.8L79.2,289.2z"/>
	<path class="st3_artificial-intelligence-92 targetColor" d="M91.3,129.1c-5.3-1.1-10.7,1.2-13.6,5.8c-5.5,7.9-4.1,45.5-4.1,45.5l33.8-5.2c0,0-1.2-29.1-2.7-36.9&#10;&#9;&#9;S91.3,129.1,91.3,129.1z" style="fill: rgb(255, 255, 255);"/>
	<path class="st3_artificial-intelligence-92 targetColor" d="M110.2,123.9c0.5-1.5,1-3.1,1.6-4.6c0.3-0.8,0.6-1.6,0.9-2.3c0.4-1,1.4-1.6,2.4-1.5c1.2,0.1,2.5,0.4,3.7,0.6&#10;&#9;&#9;c0.7,0.1,1.3,0.2,2,0.3c0.5,0,1-0.1,1.4-0.4c1.4-1.3,2.8-2.8,4.1-4.2c0.5-0.6,0.6-1.3,0.4-2c-0.3-1.5-0.7-3-1-4.5&#10;&#9;&#9;c-0.1-0.6-0.2-1.2-0.2-1.8c0-0.4,0.2-0.8,0.6-1.1c2.3-1.5,4.8-2.6,7.4-3.4c0.8-0.3,1.7,0.1,2.1,0.8c0.9,1.3,1.9,2.6,2.9,3.9&#10;&#9;&#9;c0.6,1,1.7,1.6,2.9,1.5c1.6-0.1,3.3-0.1,4.9-0.2c0.6,0,1.2-0.4,1.5-0.9c0.6-0.9,1.1-1.8,1.7-2.6s1-1.5,1.5-2.2&#10;&#9;&#9;c0.5-0.8,1.4-1.1,2.3-0.8c2.3,0.8,4.5,1.6,6.8,2.4c0.9,0.4,1.4,1.3,1.2,2.2c-0.1,1.3-0.4,2.5-0.6,3.8c-0.1,0.6-0.2,1.2-0.2,1.8&#10;&#9;&#9;c-0.1,0.8,0.2,1.5,0.8,2.1c1.2,1.1,2.4,2.2,3.6,3.4c0.7,0.7,1.7,1,2.7,0.8c1.6-0.4,3.2-0.8,4.9-1.1c1.1-0.4,2.3,0.2,2.7,1.4&#10;&#9;&#9;c0.9,1.9,1.8,3.9,2.7,5.9c0.7,1.1,0.3,2.5-0.7,3.2c0,0-0.1,0-0.1,0.1c-0.8,0.7-1.7,1.2-2.6,1.9c-0.6,0.5-1.2,0.9-1.8,1.4&#10;&#9;&#9;c-0.5,0.4-0.8,1-0.8,1.7c0,1.7,0.1,3.4,0.1,5.1c0,0.9,0.6,1.8,1.4,2.2c0.9,0.6,1.9,1.1,2.8,1.7c0.6,0.3,1.1,0.7,1.7,1.1&#10;&#9;&#9;c0.8,0.5,1.1,1.5,0.8,2.4c-0.8,2.1-1.5,4.1-2.3,6.1c-0.1,0.3-0.3,0.6-0.5,0.9c-0.4,0.7-1.1,1-1.9,0.9l-4.4-0.7c-0.1,0-0.2,0-0.3,0&#10;&#9;&#9;c-1.3-0.3-2.6,0.1-3.4,1.2c-0.8,1-1.8,1.9-2.7,2.8c-0.9,0.8-1.2,2.1-0.8,3.2c0.4,1.4,0.7,2.9,1,4.3s0,2.2-1.4,2.9&#10;&#9;&#9;c-2,1-4,1.9-6.1,2.7c-0.9,0.5-2.1,0.2-2.7-0.7c-0.8-1-1.5-2-2.2-3.1c-1.6-2.2-2-2.4-4.7-2.3l-3.2,0.2c-1,0-2,0.6-2.5,1.5&#10;&#9;&#9;c-0.6,1.1-1.3,2.2-1.9,3.2c-0.4,0.5-0.8,1.1-1.2,1.5c-0.4,0.5-1.1,0.7-1.7,0.4l-6.4-2.5c-0.3-0.1-0.6-0.3-0.8-0.5&#10;&#9;&#9;c-0.7-0.4-1-1.1-0.9-1.9c0.2-1.5,0.5-2.9,0.7-4.4c0.1-0.4,0.1-0.9,0.1-1.3c0.1-0.7-0.2-1.5-0.7-2c-1.2-1.1-2.3-2.2-3.5-3.2&#10;&#9;&#9;c-0.7-0.7-1.6-0.9-2.5-0.6c-1.4,0.4-2.9,0.7-4.3,1h-0.2c-1.9,0.3-2.5,0.1-3.3-1.6c-0.9-1.9-1.7-3.9-2.5-5.9&#10;&#9;&#9;c-0.5-0.9-0.2-2.1,0.7-2.6c0,0,0.1,0,0.1,0c1.2-0.9,2.3-1.7,3.5-2.5c1.2-0.7,1.9-2,1.7-3.4c-0.1-1.5-0.2-3.1-0.2-4.6&#10;&#9;&#9;c0-0.6-0.3-1.2-0.8-1.6c-1.3-0.8-2.6-1.6-3.8-2.4c-0.9-0.4-1.6-1.2-2-2.1L110.2,123.9z M158.9,132.5c0-8-6.5-14.5-14.5-14.6&#10;&#9;&#9;c-0.1,0-0.1,0-0.2,0c-7.9,0.2-14.2,6.7-14.3,14.6c0,8,6.4,14.4,14.4,14.5C153.6,147,159.2,138.9,158.9,132.5z" style="fill: rgb(255, 255, 255);"/>
	<path class="st2_artificial-intelligence-92" d="M81.8,150.5c0,0,7.4,23.8,11.5,23.7s19.3-12.7,23.1-15.8s8.8-7.2,10.1-9.5s0.2-4.1-0.8-3.9&#10;&#9;&#9;c-1.7,0.6-3.3,1.3-4.9,2.2c0,0,0.9-3.1,0.3-3.2s-2.9,0.9-4.1,5.4L97.7,161l-4.1-14.5"/>
	<path class="st1_artificial-intelligence-92" d="M93.3,174.9c-4.3,0-10.4-18.5-12.1-24.2c-0.1-0.4,0.1-0.8,0.5-0.9c0,0,0,0,0,0c0.4-0.1,0.8,0.1,0.9,0.5&#10;&#9;&#9;c3.5,11.2,8.6,23.2,10.8,23.2l0,0c1.7-0.1,6.9-2.8,22.3-15.3l0.4-0.4c3-2.5,8.7-7,9.9-9.3c0.6-0.8,0.6-1.8,0.2-2.6&#10;&#9;&#9;c-0.1-0.2-0.3-0.3-0.4-0.3c-1.6,0.6-3.2,1.3-4.7,2.1c-0.2,0.1-0.6,0.1-0.8-0.1c-0.2-0.2-0.3-0.5-0.2-0.7c0.2-0.7,0.4-1.5,0.5-2.2&#10;&#9;&#9;c-0.6,0.4-2.1,1.6-2.9,4.8c0,0.2-0.2,0.3-0.3,0.4l-19.3,11.7c-0.3,0.2-0.8,0.1-0.9-0.3c0,0,0-0.1-0.1-0.1l-4.1-14.5&#10;&#9;&#9;c-0.1-0.4,0.2-0.7,0.6-0.8c0.3-0.1,0.7,0.1,0.8,0.4l3.9,13.6l18.3-11.1c1.1-3.8,3-5.1,3.6-5.4c0.4-0.3,0.9-0.3,1.4-0.2&#10;&#9;&#9;c0.3,0.1,0.9,0.3,0.5,2.6c1.2-0.6,2.4-1.2,3.7-1.5c0.7-0.1,1.4,0.3,1.7,0.9c0.7,1.3,0.7,2.9-0.2,4.1c-1.3,2.3-6,6.2-10.3,9.7&#10;&#9;&#9;l-0.4,0.3C103.6,169.8,96.2,174.8,93.3,174.9L93.3,174.9z"/>
	<path class="st2_artificial-intelligence-92" d="M131.1,143.9c0.6,1.7,2.4,2.7,4.1,2.4c0.5-0.1,1-0.5,1.3-0.9c0.3-0.7,0.3-1.5,0-2.2c-0.4-1.4-2.6-5.8-4.6-5.4&#10;&#9;&#9;S130.6,142.6,131.1,143.9z"/>
	<path class="st1_artificial-intelligence-92" d="M134.5,147.1c-1.8-0.1-3.4-1.3-4.1-2.9l0,0c-0.5-1.2-0.8-4.4,0.1-6c0.3-0.6,0.8-1,1.4-1.1&#10;&#9;&#9;c2.8-0.5,5.1,5,5.4,5.9c0.4,0.9,0.3,1.9-0.1,2.8c-0.4,0.6-1,1.1-1.7,1.2C135.2,147,134.8,147.1,134.5,147.1z M132.3,138.4h-0.1&#10;&#9;&#9;c-0.1,0-0.2,0-0.4,0.4c-0.6,1.1-0.4,3.9,0,4.8l0,0c0.5,1.2,2,2.4,3.3,2c0.4-0.1,0.7-0.3,0.9-0.6c0.2-0.5,0.2-1.1,0-1.7&#10;&#9;&#9;C135.5,141.8,133.5,138.4,132.3,138.4z"/>
	<path class="st2_artificial-intelligence-92" d="M104.3,109.2c0,0,2.6,7.8,1.3,12.3c-0.7,2.5-2.8,4.4-5.3,4.9l-0.4,7.9c0,0-0.2,4.1-5.1,3.2&#10;&#9;&#9;c-2.9-0.5-5.3-2.5-6.4-5.3l0.2-14.7c0,0,5.3-6.4,5.1-11.6C93.6,105.8,99.9,111.1,104.3,109.2z"/>
	<path class="st1_artificial-intelligence-92" d="M96.1,138.3c-0.5,0-1-0.1-1.5-0.1c-3.2-0.6-5.8-2.7-7-5.8c0-0.1,0-0.2,0-0.2l0.2-14.7c0-0.2,0.1-0.3,0.2-0.5&#10;&#9;&#9;c0.1-0.1,5.1-6.2,4.9-11.2c0-0.3,0.1-0.5,0.4-0.7c0.2-0.1,0.5-0.1,0.8,0.1c0.1,0,6,4.9,10,3.2c0.2-0.1,0.4-0.1,0.6,0&#10;&#9;&#9;c0.2,0.1,0.3,0.2,0.4,0.4c0.1,0.3,2.6,8.1,1.3,12.7c-0.7,2.6-2.7,4.6-5.3,5.2l-0.4,7.4c-0.1,1.2-0.7,2.2-1.6,3&#10;&#9;&#9;C98.2,137.9,97.1,138.3,96.1,138.3z M89,132c1,2.5,3.2,4.2,5.8,4.7c1.1,0.3,2.3,0.1,3.3-0.5c0.6-0.5,0.9-1.2,1-2l0.4-8&#10;&#9;&#9;c0-0.3,0.3-0.6,0.6-0.7c2.3-0.4,4.2-2.1,4.7-4.3c1-3.4-0.5-9.2-1.1-11.2c-3.5,1-7.7-1.5-9.6-2.9c-0.5,4.6-4.2,9.5-5,10.5L89,132z"/>
	<path class="st2_artificial-intelligence-92" d="M91.3,116.6c0,0-2.2-5.7-5.1-2.3s0.9,7.4,3.3,7.2"/>
	<path class="st1_artificial-intelligence-92" d="M89.4,122.2c-1.9-0.2-3.6-1.4-4.4-3.2c-0.9-1.7-0.6-3.8,0.7-5.2c0.6-0.9,1.7-1.4,2.8-1.2&#10;&#9;&#9;c2.1,0.4,3.3,3.4,3.5,3.8c0.1,0.4,0,0.8-0.4,0.9s-0.8,0-0.9-0.4l0,0c-0.3-0.7-1.3-2.7-2.4-2.9c-0.5-0.1-1,0.2-1.5,0.8&#10;&#9;&#9;c-1,1-1.2,2.5-0.5,3.7c0.6,1.3,1.9,2.2,3.3,2.3c0.4,0,0.7,0.3,0.8,0.6c0,0.4-0.3,0.7-0.6,0.8l0,0L89.4,122.2z"/>
	<path class="st1_artificial-intelligence-92" d="M99.7,120c-0.6,0-1.3-0.1-1.9-0.3c-0.4-0.1-0.6-0.5-0.5-0.9s0.5-0.6,0.9-0.5c0,0,0.1,0,0.1,0&#10;&#9;&#9;c0.6,0.2,1.2,0.3,1.8,0.2c-0.5-1.3-1.2-2.5-2-3.7c-0.2-0.3-0.1-0.8,0.2-1c0,0,0,0,0,0c0.3-0.2,0.8-0.2,1,0.2c0,0,0,0,0,0&#10;&#9;&#9;c0.9,1.4,2.5,3.9,2.2,5c-0.1,0.3-0.3,0.5-0.6,0.6C100.4,119.9,100.1,120,99.7,120z"/>
	<path class="st1_artificial-intelligence-92" d="M99,123.4c-0.5,0-1.1-0.1-1.6-0.2c-1.9-0.6-3.4-1.9-4.4-3.6c-0.1-0.4,0-0.8,0.4-0.9s0.8,0,0.9,0.4&#10;&#9;&#9;c0.9,1.3,2.2,2.3,3.7,2.8c1.4,0.3,2.9-0.1,4-1c0.3-0.2,0.7-0.2,1,0.1c0,0,0,0,0,0c0.2,0.3,0.2,0.8-0.2,1c0,0,0,0,0,0&#10;&#9;&#9;C101.7,122.9,100.4,123.4,99,123.4z"/>
	<path class="st1_artificial-intelligence-92" d="M100.3,126.3c-2.2,0.2-4.5,0-6.7-0.4c0,0,2.3,6.4,6.4,6.6L100.3,126.3z"/>
	<path class="st1_artificial-intelligence-92" d="M100,133.1L100,133.1c-4.4-0.2-6.9-6.8-7-7.1c-0.1-0.4,0.1-0.8,0.4-0.9c0.1-0.1,0.3-0.1,0.4,0&#10;&#9;&#9;c2.1,0.4,4.3,0.6,6.4,0.4c0.2,0,0.4,0.1,0.5,0.2c0.1,0.1,0.2,0.3,0.2,0.5l-0.3,6.2C100.7,132.9,100.4,133.2,100,133.1&#10;&#9;&#9;C100,133.2,100,133.2,100,133.1z M94.8,126.8c0.8,1.6,2.4,4.2,4.5,4.8l0.2-4.6C98,127.1,96.4,127,94.8,126.8L94.8,126.8z"/>
	<ellipse class="st1_artificial-intelligence-92" cx="94.7" cy="113.4" rx="0.6" ry="1.1"/>
	<ellipse class="st1_artificial-intelligence-92" cx="101.2" cy="113.7" rx="0.6" ry="1.1"/>
	<path class="st2_artificial-intelligence-92" d="M95.4,213.7L95.4,213.7c-0.4,0-0.7-0.4-0.7-0.8c0.4-6.1-0.8-21.7-0.8-21.9c0-0.4,0.3-0.7,0.6-0.8&#10;&#9;&#9;c0.4,0,0.7,0.3,0.8,0.6c0,0.6,1.2,15.9,0.8,22.1C96.1,213.5,95.7,213.7,95.4,213.7C95.4,213.7,95.4,213.7,95.4,213.7z"/>
</g>
</svg>